<?xml version="1.0" encoding="UTF-8"?>
<svg version="1.1" xmlns="http://www.w3.org/2000/svg" width="500" height="500">
<path d="M0 0 C-1.03857102 8.30856814 -5.05576937 13.57113992 -11.390625 18.75 C-11.92171875 19.1625 -12.4528125 19.575 -13 20 C-12.64808594 20.46148437 -12.29617188 20.92296875 -11.93359375 21.3984375 C-2.98917022 33.21535214 5.33181608 45.23191127 11 59 C7.25 60.125 7.25 60.125 5 59 C6.43060331 63.16175509 8.56513456 66.58544906 10.9765625 70.23046875 C12 72 12 72 12 74 C12.65846924 74.16435547 13.31693848 74.32871094 13.99536133 74.49804688 C21.11863351 76.34860566 27.8666636 78.74988233 34.6875 81.5 C36.64955067 82.28172433 38.61178679 83.06298337 40.57421875 83.84375 C41.42588623 84.18599609 42.27755371 84.52824219 43.1550293 84.88085938 C46.75456648 86.29682766 50.3757857 87.64844239 54 89 C54.22333783 94.56817481 54.38617494 100.13371858 54.49438477 105.70532227 C54.53950716 107.59803699 54.60082605 109.49044034 54.67895508 111.38208008 C55.31071058 127.07686883 55.31071058 127.07686883 52.13671875 131.73388672 C49.82921218 133.55507286 47.67855674 134.80658927 45 136 C44.11054688 136.556875 43.22109375 137.11375 42.3046875 137.6875 C41.50289062 138.120625 40.70109375 138.55375 39.875 139 C30.57084963 144.27591668 21.73010408 150.29809931 12.79443359 156.16796875 C8.91494875 158.71135982 5.02188853 161.23338414 1.125 163.75 C0.44735596 164.18795898 -0.23028809 164.62591797 -0.9284668 165.07714844 C-2.27611228 165.94805927 -3.62384892 166.81882907 -4.97167969 167.68945312 C-7.77039202 169.49776894 -10.56796325 171.30784212 -13.36474609 173.11914062 C-14.77523717 174.03129904 -16.18699987 174.94149446 -17.60009766 175.84960938 C-21.32285496 178.24558877 -25.013118 180.67906214 -28.671875 183.171875 C-29.43822266 183.68685547 -30.20457031 184.20183594 -30.99414062 184.73242188 C-32.46458764 185.72163168 -33.92731528 186.72244448 -35.38085938 187.73632812 C-36.04408203 188.17912109 -36.70730469 188.62191406 -37.390625 189.078125 C-37.96844727 189.47418945 -38.54626953 189.87025391 -39.14160156 190.27832031 C-41.82289155 191.31955694 -43.27376051 190.87205327 -46 190 C-48.77978516 188.43701172 -48.77978516 188.43701172 -51.7890625 186.4296875 C-52.33299652 186.0703714 -52.87693054 185.7110553 -53.43734741 185.34085083 C-55.17163682 184.19299746 -56.89843145 183.03442632 -58.625 181.875 C-60.32481865 180.74405076 -62.02612595 179.61536551 -63.72747803 178.48672485 C-64.85434834 177.73871998 -65.98052628 176.989671 -67.10601807 176.23959351 C-70.5935691 173.91818718 -74.10738347 171.64505718 -77.6484375 169.40625 C-84.12406141 165.31048569 -90.4651295 161.01927251 -96.80859375 156.72265625 C-98.14083984 155.82740234 -98.14083984 155.82740234 -99.5 154.9140625 C-100.2940625 154.3773291 -101.088125 153.8405957 -101.90625 153.28759766 C-104.06030424 151.85345803 -104.06030424 151.85345803 -107 151 C-107 150.34 -107 149.68 -107 149 C-107.64453125 148.77828125 -108.2890625 148.5565625 -108.953125 148.328125 C-113.12689129 146.50879098 -116.88470621 144.14494117 -120.75 141.75 C-121.51054687 141.28464844 -122.27109375 140.81929687 -123.0546875 140.33984375 C-124.60213802 139.38776826 -126.13491347 138.4114546 -127.65258789 137.41259766 C-129.96373034 135.92519641 -129.96373034 135.92519641 -132.56420898 135.03662109 C-135.63176685 133.68608591 -137.05457279 132.76417621 -139 130 C-140.53844278 123.21757748 -139.83871539 116.01590794 -139.5625 109.125 C-139.51733352 107.17717516 -139.47627269 105.2292505 -139.43945312 103.28125 C-139.34048618 98.51836542 -139.18532948 93.76027471 -139 89 C-138.12827148 88.66734131 -137.25654297 88.33468262 -136.35839844 87.99194336 C-135.2037207 87.54987549 -134.04904297 87.10780762 -132.859375 86.65234375 C-131.71952148 86.21656006 -130.57966797 85.78077637 -129.40527344 85.33178711 C-126.32774945 84.12818133 -123.28559129 82.86757055 -120.25 81.5625 C-116.1990098 79.84841479 -112.12661126 78.33175081 -107.96435547 76.91967773 C-101.05287853 74.56801908 -94.28647674 71.99254693 -87.625 69 C-86.90546143 68.69215576 -86.18592285 68.38431152 -85.44458008 68.06713867 C-81.84389724 66.39645993 -80.2512446 65.38481139 -78.0234375 61.97265625 C-76.69579079 58.11639998 -76.86245023 55.91032734 -78 52 C-79.61699519 48.87916526 -79.61699519 48.87916526 -83 47 C-87.33221262 46.29109248 -91.61455659 46.0706294 -96 46 C-96.99 47.98 -97.98 49.96 -99 52 C-100.8125 51.5 -100.8125 51.5 -103 50 C-106.36611509 43.61598863 -106.60287257 38.02058185 -105 31 C-103.89724869 28.50202856 -102.84595626 27.06970854 -101 25 C-100.34 25 -99.68 25 -99 25 C-99 24.34 -99 23.68 -99 23 C-97.44424022 22.15415002 -95.8800388 21.32381601 -94.3125 20.5 C-93.44238281 20.0359375 -92.57226562 19.571875 -91.67578125 19.09375 C-88.88211171 17.95181208 -86.98370887 17.78495792 -84 18 C-83.9071875 17.1646875 -83.9071875 17.1646875 -83.8125 16.3125 C-82.63812335 12.97004338 -80.85735731 10.98445035 -78 9 C-68.49336878 4.53679285 -59.33980002 3.83602629 -49.015625 4.04296875 C-47.0911562 4.06536289 -45.16667629 4.08681765 -43.2421875 4.10742188 C-40.24936073 4.14437942 -37.25711768 4.18735855 -34.26464844 4.24682617 C-19.37614963 4.66510599 -19.37614963 4.66510599 -5.13574219 0.8684082 C-3 0 -3 0 0 0 Z " fill="#8A4CAA" transform="translate(293,161)"/>
<path d="M0 0 C-1.03857102 8.30856814 -5.05576937 13.57113992 -11.390625 18.75 C-11.92171875 19.1625 -12.4528125 19.575 -13 20 C-12.64808594 20.46148437 -12.29617188 20.92296875 -11.93359375 21.3984375 C-2.98917022 33.21535214 5.33181608 45.23191127 11 59 C7.25 60.125 7.25 60.125 5 59 C6.43060331 63.16175509 8.56513456 66.58544906 10.9765625 70.23046875 C12 72 12 72 12 74 C12.98770386 74.2465332 12.98770386 74.2465332 13.99536133 74.49804688 C21.11863351 76.34860566 27.8666636 78.74988233 34.6875 81.5 C36.64955067 82.28172433 38.61178679 83.06298337 40.57421875 83.84375 C41.42588623 84.18599609 42.27755371 84.52824219 43.1550293 84.88085938 C46.7535773 86.29643854 50.37924859 87.64221822 54 89 C54 102.2 54 115.4 54 129 C50 128 50 128 49 127 C48.91148471 124.40640678 48.88474055 121.83960309 48.90234375 119.24609375 C48.90446617 118.08292381 48.90446617 118.08292381 48.90663147 116.89625549 C48.91224655 114.40996506 48.92480154 111.9237634 48.9375 109.4375 C48.94251306 107.75586067 48.9470763 106.07421994 48.95117188 104.39257812 C48.96222087 100.26168434 48.97949555 96.13085724 49 92 C48.10361816 91.8649707 47.20723633 91.72994141 46.28369141 91.59082031 C43.52571689 91.09458995 41.09415332 90.47091233 38.4609375 89.546875 C37.63835449 89.2595752 36.81577148 88.97227539 35.96826172 88.67626953 C35.11248535 88.37060059 34.25670898 88.06493164 33.375 87.75 C32.49215332 87.43788574 31.60930664 87.12577148 30.69970703 86.80419922 C23.35432196 84.18190347 15.98468848 81.49234424 9 78 C9.45375 79.010625 9.9075 80.02125 10.375 81.0625 C12.48960809 86.01328861 14 90.57292491 14 96 C11 95 11 95 10.05200195 93.20581055 C9.78347412 92.44051025 9.51494629 91.67520996 9.23828125 90.88671875 C8.92310547 90.05076172 8.60792969 89.21480469 8.28320312 88.35351562 C7.6421025 86.5927463 7.01420483 84.82710688 6.40039062 83.05664062 C4.61070064 78.38336198 3.31742107 75.68750213 -1.26953125 73.39453125 C-2.50058594 72.93433594 -3.73164063 72.47414063 -5 72 C-5.103125 73.155 -5.20625 74.31 -5.3125 75.5 C-6.8963977 89.28419076 -10.31719096 102.37603401 -14.29199219 115.63378906 C-14.90646868 117.68741188 -15.50541928 119.745668 -16.1015625 121.8046875 C-17.95143794 128.07621643 -20.19101895 134.02949512 -22.78125 140.03125 C-24.00369409 143.00899842 -25.02033235 145.99708832 -26 149.0625 C-27.5553531 153.85249181 -29.42207517 158.35506466 -31.5625 162.91015625 C-33.37626356 166.80876217 -35.09539402 170.74557664 -36.8125 174.6875 C-37.12678955 175.40776367 -37.4410791 176.12802734 -37.76489258 176.87011719 C-38.51063978 178.57976799 -39.2554252 180.28983828 -40 182 C-37.69 181.67 -35.38 181.34 -33 181 C-33.26953125 182.88671875 -33.26953125 182.88671875 -34 185 C-37.61609221 187.3905908 -41.23789644 188.06804496 -45.5 187.6875 C-46.7375 187.3471875 -46.7375 187.3471875 -48 187 C-48 186.34 -48 185.68 -48 185 C-48.99 184.67 -49.98 184.34 -51 184 C-47.25 182 -47.25 182 -45 182 C-44.67 180.68 -44.34 179.36 -44 178 C-43.34 178 -42.68 178 -42 178 C-41.34 175.03 -40.68 172.06 -40 169 C-39.34 169 -38.68 169 -38 169 C-37.81824219 168.11248047 -37.81824219 168.11248047 -37.6328125 167.20703125 C-37.46523437 166.41683594 -37.29765625 165.62664062 -37.125 164.8125 C-36.96257812 164.03519531 -36.80015625 163.25789062 -36.6328125 162.45703125 C-36 160 -36 160 -34.94921875 157.578125 C-31.62872442 148.55949842 -34.38201646 137.14666779 -35.93237305 127.92944336 C-37.85852333 116.40797826 -37.85852333 116.40797826 -35.4375 112.4375 C-33.77648626 110.11247273 -33.77648626 110.11247273 -34.0625 107.5 C-35.19746916 104.47341558 -36.93536544 102.46424125 -39 100 C-39 99.34 -39 98.68 -39 98 C-42.43230448 98.26393501 -42.43230448 98.26393501 -46 99 C-46.66 99.99 -47.32 100.98 -48 102 C-48.66 102 -49.32 102 -50 102 C-51.47910576 104.34916798 -52.02809996 105.63470047 -51.8125 108.4375 C-51.1090483 111.0725137 -51.1090483 111.0725137 -49.43969727 113.32128906 C-47.75598119 116.45402312 -47.7583419 117.92598196 -48.15234375 121.421875 C-48.32999268 122.9987207 -48.32999268 122.9987207 -48.51123047 124.60742188 C-49.3633034 130.52171032 -50.42569838 136.38448575 -51.5625 142.25 C-51.79646484 143.48363281 -52.03042969 144.71726562 -52.27148438 145.98828125 C-52.84220014 148.99327447 -53.41845017 151.99708815 -54 155 C-54.99 155 -55.98 155 -57 155 C-59.03269513 149.6786355 -61.02459118 144.3428347 -63 139 C-63.39638672 137.92814453 -63.79277344 136.85628906 -64.20117188 135.75195312 C-69.15469608 122.29374808 -73.94259679 109.02417561 -77 95 C-77.35090624 93.69253203 -77.70250088 92.38524866 -78.0546875 91.078125 C-79.07786481 87.02634287 -79.40137638 83.17430754 -79.625 79 C-79.66367188 78.32066406 -79.70234375 77.64132813 -79.7421875 76.94140625 C-79.83496296 75.29464183 -79.91848998 73.64736045 -80 72 C-82.64 72.33 -85.28 72.66 -88 73 C-87.34 71.68 -86.68 70.36 -86 69 C-85.34 69 -84.68 69 -84 69 C-83.505 67.515 -83.505 67.515 -83 66 C-82.360625 65.71125 -81.72125 65.4225 -81.0625 65.125 C-78.82819867 64.13216584 -78.82819867 64.13216584 -77.6875 61.8125 C-76.7816433 58.10672258 -77.01230653 55.68738897 -78 52 C-79.61699519 48.87916526 -79.61699519 48.87916526 -83 47 C-87.33221262 46.29109248 -91.61455659 46.0706294 -96 46 C-96.99 47.98 -97.98 49.96 -99 52 C-100.8125 51.5 -100.8125 51.5 -103 50 C-106.36611509 43.61598863 -106.60287257 38.02058185 -105 31 C-103.89724869 28.50202856 -102.84595626 27.06970854 -101 25 C-100.34 25 -99.68 25 -99 25 C-99 24.34 -99 23.68 -99 23 C-97.44424022 22.15415002 -95.8800388 21.32381601 -94.3125 20.5 C-93.44238281 20.0359375 -92.57226562 19.571875 -91.67578125 19.09375 C-88.88211171 17.95181208 -86.98370887 17.78495792 -84 18 C-83.9071875 17.1646875 -83.9071875 17.1646875 -83.8125 16.3125 C-82.63812335 12.97004338 -80.85735731 10.98445035 -78 9 C-68.49336878 4.53679285 -59.33980002 3.83602629 -49.015625 4.04296875 C-47.0911562 4.06536289 -45.16667629 4.08681765 -43.2421875 4.10742188 C-40.24936073 4.14437942 -37.25711768 4.18735855 -34.26464844 4.24682617 C-19.37614963 4.66510599 -19.37614963 4.66510599 -5.13574219 0.8684082 C-3 0 -3 0 0 0 Z " fill="#8C4FAD" transform="translate(293,161)"/>
<path d="M0 0 C0 0.66 0 1.32 0 2 C-0.66 2 -1.32 2 -2 2 C-2.20625 2.5775 -2.4125 3.155 -2.625 3.75 C-4.5274665 6.863127 -6.86294893 8.20739939 -10 10 C-10.99 10 -11.98 10 -13 10 C-12.5875 10.46148437 -12.175 10.92296875 -11.75 11.3984375 C-9.81518788 13.58373869 -7.90454613 15.78826901 -6 18 C-5.35160156 18.74765625 -4.70320313 19.4953125 -4.03515625 20.265625 C1.60867648 27.01587246 5.82553471 34.2950029 10 42 C9.01 42.495 9.01 42.495 8 43 C6.0546875 42.22265625 6.0546875 42.22265625 3.875 41.0625 C2.78832031 40.49208984 2.78832031 40.49208984 1.6796875 39.91015625 C1.12539063 39.60980469 0.57109375 39.30945313 0 39 C0.51949219 39.83402344 1.03898437 40.66804688 1.57421875 41.52734375 C4.79341972 46.71250435 8.00643968 51.90414148 11.0625 57.1875 C11.66771484 58.22970703 11.66771484 58.22970703 12.28515625 59.29296875 C12.63900391 60.13794922 12.63900391 60.13794922 13 61 C12.505 61.99 12.505 61.99 12 63 C11.113125 62.505 10.22625 62.01 9.3125 61.5 C5.52656428 59.78561401 2.99756727 59.26150543 -0.93359375 60.71484375 C-3 61 -3 61 -4.74609375 59.70703125 C-5.30425781 59.08183594 -5.86242187 58.45664063 -6.4375 57.8125 C-9.09508956 54.88360199 -11.86882283 52.4222314 -15 50 C-14.24203125 51.57201172 -14.24203125 51.57201172 -13.46875 53.17578125 C-12.81219673 54.55454312 -12.15596335 55.93345736 -11.5 57.3125 C-11.16613281 58.00279297 -10.83226562 58.69308594 -10.48828125 59.40429688 C-8 64.66015625 -8 64.66015625 -8 68 C-10.1171875 69.82421875 -10.1171875 69.82421875 -12.875 71.6875 C-14.23238281 72.62142578 -14.23238281 72.62142578 -15.6171875 73.57421875 C-18 75 -18 75 -20 75 C-20.99 73.02 -21.98 71.04 -23 69 C-22.979375 69.64066406 -22.95875 70.28132813 -22.9375 70.94140625 C-23.03460476 75.01373706 -23.19808994 77.93935009 -25.70703125 81.2578125 C-27.75772084 83.13729424 -29.52285899 84.72696093 -32 86 C-35.62144795 85.62320195 -38.6519958 83.97412987 -41.58203125 81.875 C-44.54513209 77.95685013 -43.46756275 72.65336257 -43 68 C-43.66 68 -44.32 68 -45 68 C-45.144375 68.598125 -45.28875 69.19625 -45.4375 69.8125 C-45.8872439 71.56150404 -46.42892341 73.28677023 -47 75 C-50.45925163 73.7508258 -53.14693203 72.32472205 -56 70 C-55.67 67.36 -55.34 64.72 -55 62 C-55.556875 62.515625 -56.11375 63.03125 -56.6875 63.5625 C-59 65 -59 65 -61.75 64.6875 C-62.4925 64.460625 -63.235 64.23375 -64 64 C-64 63.34 -64 62.68 -64 62 C-64.66 62 -65.32 62 -66 62 C-65.23287671 57.39726027 -65.23287671 57.39726027 -63.9375 55.1875 C-62.47755333 51.78095777 -62.34500672 48.59273541 -63 45 C-64.79768145 41.19078651 -67.02517784 37.97482216 -70 35 C-72.84214604 34.37706388 -75.68771313 33.9817635 -78.56640625 33.5625 C-79.77103516 33.2840625 -79.77103516 33.2840625 -81 33 C-81.33 32.34 -81.66 31.68 -82 31 C-76.17251381 28.57188075 -70.2242509 28.38272093 -64 28 C-72.58236341 27.55480536 -80.46608677 27.34578501 -88 32 C-88.66 32.99 -89.32 33.98 -90 35 C-90.66 35 -91.32 35 -92 35 C-92.60655009 28.206639 -91.37220727 24.27344219 -87 19 C-82.60682594 15.12366995 -76.62030731 14.8366482 -71 14 C-70.690625 12.63875 -70.690625 12.63875 -70.375 11.25 C-68.34559281 6.45321938 -65.06528019 4.98100809 -60.5 2.8125 C-54.21334891 0.7693384 -48.02564729 0.8811812 -41.4921875 0.9375 C-40.48914581 0.94128662 -39.48610413 0.94507324 -38.45266724 0.94897461 C-35.26006704 0.9611524 -32.06755881 0.97978479 -28.875 1 C-24.66406493 1.0265754 -20.45317479 1.04657256 -16.2421875 1.0625 C-15.27546112 1.07079834 -14.30873474 1.07909668 -13.31271362 1.08764648 C-12.41142731 1.09094971 -11.51014099 1.09425293 -10.58154297 1.09765625 C-9.79133759 1.10289307 -9.0011322 1.10812988 -8.1869812 1.11352539 C-5.36538824 0.96705754 -2.8131752 0 0 0 Z " fill="#030104" transform="translate(284,169)"/>
<path d="M0 0 C-0.78383183 3.61091067 -2.08828554 6.93990799 -3.4375 10.375 C-5.08125297 14.56534338 -6.57418265 18.72254794 -8 23 C-4.04 24.98 -0.08 26.96 4 29 C2.86757926 33.52968295 1.37362543 34.94923374 -1.8203125 38.12109375 C-3.23385027 39.97876702 -3.23385027 39.97876702 -2.8984375 42.46484375 C-1.86431657 45.38286323 -0.6367703 46.89495798 1.5 49.125 C4.61383181 52.47195291 7.5709448 55.875717 10.4375 59.4375 C14.07210635 63.91997335 17.86724512 68.20878018 21.75390625 72.47265625 C24.84382925 75.94949135 27.73933159 79.57245829 30.66015625 83.19140625 C33.90992092 87.09220892 37.35866766 90.79413862 40.8359375 94.4921875 C42.89749773 96.88121578 44.47074474 99.24734052 46 102 C41.25 100.125 41.25 100.125 39 99 C39 98.34 39 97.68 39 97 C38.32324219 96.76023437 37.64648438 96.52046875 36.94921875 96.2734375 C33.3483993 94.71864658 30.11369146 92.72148739 26.8125 90.625 C26.12341553 90.1909082 25.43433105 89.75681641 24.72436523 89.30957031 C15.56508161 83.50530178 6.57585682 77.43985228 -2.41040039 71.37255859 C-3.20309326 70.83969238 -3.99578613 70.30682617 -4.8125 69.7578125 C-5.52921875 69.2745752 -6.2459375 68.79133789 -6.984375 68.29345703 C-9.57388548 66.63172901 -12.20843631 65.28841401 -15 64 C-15 63.34 -15 62.68 -15 62 C-15.84304687 61.76152344 -16.68609375 61.52304687 -17.5546875 61.27734375 C-21.48691718 59.81947629 -24.65165654 57.87432753 -28.125 55.5625 C-28.73214844 55.16740234 -29.33929688 54.77230469 -29.96484375 54.36523438 C-31.65381466 53.25949198 -33.32747573 52.1304652 -35 51 C-36.07822021 50.43563232 -36.07822021 50.43563232 -37.17822266 49.85986328 C-39.53131815 47.45757415 -39.45459805 45.59769103 -39.45318604 42.32380676 C-39.43254089 41.57370834 -39.41189575 40.82360992 -39.390625 40.05078125 C-39.38496521 39.27816452 -39.37930542 38.50554779 -39.37347412 37.70951843 C-39.35109327 35.24321371 -39.30089703 32.77836508 -39.25 30.3125 C-39.22993706 28.63999495 -39.21168592 26.96746711 -39.1953125 25.29492188 C-39.15122331 21.19605404 -39.08218675 17.09827383 -39 13 C-36.4569104 12.03064739 -33.91249307 11.06506491 -31.3671875 10.1015625 C-30.65328857 9.82900635 -29.93938965 9.5564502 -29.20385742 9.27563477 C-24.37589249 7.45235173 -19.54839677 5.98726514 -14.54296875 4.72265625 C-10.90552977 3.68897543 -7.47003123 2.25359734 -3.99609375 0.76953125 C-2 0 -2 0 0 0 Z " fill="#040105" transform="translate(198,240)"/>
<path d="M0 0 C5.20604904 1.71841944 10.38584485 3.50797566 15.5625 5.3125 C16.38041016 5.59544922 17.19832031 5.87839844 18.04101562 6.16992188 C25.08687715 8.62752709 32.04645573 11.29329262 39 14 C39.69083453 22.86393843 40.12263154 31.71314646 39.8984375 40.60546875 C39.89992294 41.35138275 39.90140839 42.09729675 39.90293884 42.86581421 C39.73915379 47.02140076 39.07800323 49.39789883 36.23291016 52.50634766 C33.94523633 54.599892 31.92156934 56.0315551 28.9375 56.98046875 C22.57551195 59.38338741 17.20252194 63.25719562 11.5625 67 C9.37960395 68.40228868 7.19345877 69.79953396 5.00390625 71.19140625 C3.96637207 71.85156738 2.92883789 72.51172852 1.85986328 73.19189453 C-2.33560654 75.84441711 -6.56544477 78.43997508 -10.79321289 81.04052734 C-15.08763497 83.71816648 -19.28334655 86.53107284 -23.4609375 89.38671875 C-24.02927307 89.77510422 -24.59760864 90.16348969 -25.1831665 90.56364441 C-28.04473485 92.52213714 -30.90058206 94.4884728 -33.75 96.46459961 C-34.78898437 97.18010986 -35.82796875 97.89562012 -36.8984375 98.6328125 C-37.83349121 99.28137207 -38.76854492 99.92993164 -39.73193359 100.59814453 C-42 102 -42 102 -44 102 C-42.31658612 97.94000183 -39.48847677 94.8873668 -36.625 91.625 C-35.54681429 90.38156306 -34.4686912 89.13807181 -33.390625 87.89453125 C-32.83439453 87.25596191 -32.27816406 86.61739258 -31.70507812 85.95947266 C-28.91609 82.75437261 -26.14466988 79.53429151 -23.375 76.3125 C-22.86662598 75.72484863 -22.35825195 75.13719727 -21.83447266 74.53173828 C-19.73083401 72.08762633 -17.79147604 69.68721406 -16 67 C-15.34 67 -14.68 67 -14 67 C-13.63455078 66.15501953 -13.63455078 66.15501953 -13.26171875 65.29296875 C-11.76152321 62.56660719 -9.93821738 60.58456625 -7.8125 58.3125 C-3.60325099 53.72864145 0.26364764 48.97379381 4 44 C2.7997475 41.45892488 1.66712783 39.58880497 -0.125 37.375 C-2 35 -2 35 -2 33 C-2.66 33 -3.32 33 -4 33 C-2.67708855 29.03126566 -1.08850262 28.70094963 2.5625 26.8125 C3.57441406 26.28269531 4.58632813 25.75289063 5.62890625 25.20703125 C6.41136719 24.80871094 7.19382812 24.41039062 8 24 C7.43810843 19.71952268 6.41152315 16.27056806 4.5625 12.375 C4.13066406 11.45460937 3.69882812 10.53421875 3.25390625 9.5859375 C2.48101473 7.99199923 1.68154165 6.41026232 0.83984375 4.8515625 C0 3 0 3 0 0 Z " fill="#030104" transform="translate(302,239)"/>
<path d="M0 0 C0.12060791 0.86951294 0.12060791 0.86951294 0.24365234 1.7565918 C0.61423972 4.40119003 0.9945265 7.04430672 1.375 9.6875 C1.50132812 10.59951172 1.62765625 11.51152344 1.7578125 12.45117188 C1.88671875 13.33740234 2.015625 14.22363281 2.1484375 15.13671875 C2.26364746 15.94842529 2.37885742 16.76013184 2.49755859 17.59643555 C2.93385156 20.03251464 2.93385156 20.03251464 3.94091797 22.34594727 C5.2465448 25.61783968 5.99422671 28.89815849 6.796875 32.328125 C8.81047843 40.64599412 11.42119189 48.67871117 14.25 56.75 C14.4892218 57.43977936 14.7284436 58.12955872 14.97491455 58.84024048 C18.73048399 69.66898107 22.76709589 80.35428957 27.15087891 90.94580078 C28.48051415 94.16246293 29.78010162 97.38913998 31.0625 100.625 C31.46597656 101.62789063 31.86945313 102.63078125 32.28515625 103.6640625 C33 106 33 106 32 108 C29.8501895 105.37245383 27.7004097 102.74488262 25.55078125 100.1171875 C23.98641627 98.20512049 22.42126358 96.29370965 20.85546875 94.3828125 C18.56805211 91.5903818 16.28347437 88.79565554 14 86 C13.50983398 85.40026367 13.01966797 84.80052734 12.51464844 84.18261719 C5.70692257 75.84808158 -1.03571087 67.46936519 -7.66015625 58.98828125 C-9.93234786 56.00589344 -9.93234786 56.00589344 -12.37109375 53.41796875 C-14 51 -14 51 -13.96875 48.4453125 C-12.86647146 45.66294813 -11.56400354 44.03205288 -9.5 41.875 C-7.19456631 39.44673583 -6.07463802 38.22391405 -5 35 C-5.825 34.7525 -6.65 34.505 -7.5 34.25 C-11.52373471 32.81295189 -15.21979024 30.97645485 -19 29 C-18.45568767 24.78157945 -16.87771489 21.35191143 -15.09765625 17.54296875 C-13.91443028 14.80175841 -13.03230348 12.0308904 -12.125 9.1875 C-10.9079105 5.76623267 -10.00115893 3.43894929 -7 1.3125 C-4 0 -4 0 0 0 Z " fill="#060209" transform="translate(213,233)"/>
<path d="M0 0 C3.28591068 0.28164949 4.90766391 0.92865583 7.54296875 2.96484375 C10.71402997 6.88203702 12.44611255 10.91246826 14.3125 15.5625 C14.67150391 16.41263672 15.03050781 17.26277344 15.40039062 18.13867188 C17.03472197 22.10776229 18 24.62502438 18 29 C16.04414675 30.00484204 14.08523763 31.00373805 12.125 32 C11.03445313 32.556875 9.94390625 33.11375 8.8203125 33.6875 C6 35 6 35 4 35 C4 35.99 4 36.98 4 38 C4.99 38.33 5.98 38.66 7 39 C8.82421875 40.9609375 8.82421875 40.9609375 10.6875 43.375 C11.31011719 44.16648437 11.93273437 44.95796875 12.57421875 45.7734375 C14 48 14 48 14 51 C12.37037336 52.70290122 10.69568586 54.36286683 9 56 C7.17440387 58.17240593 5.46175175 60.42481019 3.75 62.6875 C3.30398438 63.26822266 2.85796875 63.84894531 2.3984375 64.44726562 C-0.01254235 67.58741914 -0.01254235 67.58741914 -2 71 C-2.66 71 -3.32 71 -4 71 C-4 71.66 -4 72.32 -4 73 C-4.66 73 -5.32 73 -6 73 C-6.2475 73.71542969 -6.495 74.43085938 -6.75 75.16796875 C-8.13863595 78.31409706 -9.84463946 80.63810963 -12 83.3125 C-12.70125 84.19550781 -13.4025 85.07851563 -14.125 85.98828125 C-14.74375 86.65214844 -15.3625 87.31601562 -16 88 C-16.66 88 -17.32 88 -18 88 C-18.41668945 88.88425659 -18.41668945 88.88425659 -18.84179688 89.78637695 C-20.64807959 93.23864622 -23.08714335 96.14181402 -25.5 99.1875 C-26.24830078 100.14946289 -26.24830078 100.14946289 -27.01171875 101.13085938 C-30.74821701 105.8741085 -30.74821701 105.8741085 -33 107 C-32.27486374 102.15608977 -30.48919665 97.83407463 -28.6875 93.3125 C-28.36990723 92.50522461 -28.05231445 91.69794922 -27.72509766 90.86621094 C-26.13002015 86.81861008 -24.51046344 82.78145103 -22.875 78.75 C-20.84670034 73.71842401 -19.04801077 68.60845025 -17.24609375 63.4921875 C-16.35815043 61.00371939 -15.44411257 58.53698341 -14.5 56.0703125 C-13.00385628 52.09553986 -11.74500872 48.07784882 -10.5625 44 C-10.34859619 43.26507324 -10.13469238 42.53014648 -9.91430664 41.77294922 C-5.94648593 27.98812917 -2.87103096 14.04972597 0 0 Z " fill="#07020A" transform="translate(288,233)"/>
<path d="M0 0 C0 0.99 0 1.98 0 3 C0.99 3 1.98 3 3 3 C3 3.66 3 4.32 3 5 C6.62528568 5.20140476 8.86501708 4.85776765 12 3 C11.87625 4.2375 11.7525 5.475 11.625 6.75 C11.52722078 8.94551868 11.52722078 8.94551868 12 11 C14.88509913 13.42422186 14.88509913 13.42422186 18 15 C18 15.66 18 16.32 18 17 C18.99 17 19.98 17 21 17 C21 16.01 21 15.02 21 14 C21.66 14 22.32 14 23 14 C23 16.64 23 19.28 23 22 C23.66 22 24.32 22 25 22 C26.25664978 24.90600261 27 26.79604584 27 30 C25.2983156 32.15315168 23.42556869 34.07797566 21.53125 36.0625 C19.68997275 37.9806892 19.68997275 37.9806892 20 41 C20.5775 41.020625 21.155 41.04125 21.75 41.0625 C24.6532428 42.2721845 25.88464387 43.98751256 27.31542969 46.74633789 C29.91172611 55.29356052 26.08881546 66.72976728 24.4375 75.25 C24.08655273 77.10044922 24.08655273 77.10044922 23.72851562 78.98828125 C23.15779986 81.99327447 22.58154983 84.99708815 22 88 C21.01 88 20.02 88 19 88 C16.96730487 82.6786355 14.97540882 77.3428347 13 72 C12.60361328 70.92814453 12.20722656 69.85628906 11.79882812 68.75195312 C6.84530392 55.29374808 2.05740321 42.02417561 -1 28 C-1.35090624 26.69253203 -1.70250088 25.38524866 -2.0546875 24.078125 C-3.07786481 20.02634287 -3.40137638 16.17430754 -3.625 12 C-3.66367188 11.32066406 -3.70234375 10.64132813 -3.7421875 9.94140625 C-3.83496296 8.29464183 -3.91848998 6.64736045 -4 5 C-6.64 5.33 -9.28 5.66 -12 6 C-11.05275873 3.63189682 -10.34708866 2.24792047 -8.25 0.75 C-5.42246362 -0.19251213 -2.96006696 -0.1345485 0 0 Z " fill="#9650B9" transform="translate(217,228)"/>
<path d="M0 0 C0 1.65 0 3.3 0 5 C0.66 5 1.32 5 2 5 C2.93459035 17.85061728 -1.67918143 30.57559973 -5.84765625 42.57421875 C-6.86447383 45.59709677 -7.71760863 48.59771714 -8.5 51.6875 C-9.8027734 56.66306396 -11.70573259 61.24678963 -13.74609375 65.9609375 C-14.98455577 68.96256819 -16.013113 71.96998771 -17 75.0625 C-18.5553531 79.85249181 -20.42207517 84.35506466 -22.5625 88.91015625 C-24.37626356 92.80876217 -26.09539402 96.74557664 -27.8125 100.6875 C-28.12678955 101.40776367 -28.4410791 102.12802734 -28.76489258 102.87011719 C-29.51063978 104.57976799 -30.2554252 106.28983828 -31 108 C-27.535 107.505 -27.535 107.505 -24 107 C-24.26953125 108.88671875 -24.26953125 108.88671875 -25 111 C-28.61609221 113.3905908 -32.23789644 114.06804496 -36.5 113.6875 C-37.325 113.460625 -38.15 113.23375 -39 113 C-39 112.34 -39 111.68 -39 111 C-39.99 110.67 -40.98 110.34 -42 110 C-38.25 108 -38.25 108 -36 108 C-35.67 106.68 -35.34 105.36 -35 104 C-34.34 104 -33.68 104 -33 104 C-32.34 101.03 -31.68 98.06 -31 95 C-30.34 95 -29.68 95 -29 95 C-28.87882813 94.40832031 -28.75765625 93.81664062 -28.6328125 93.20703125 C-28.46523437 92.41683594 -28.29765625 91.62664062 -28.125 90.8125 C-27.96257812 90.03519531 -27.80015625 89.25789063 -27.6328125 88.45703125 C-27 86 -27 86 -25.94921875 83.578125 C-22.62872442 74.55949842 -25.38201646 63.14666779 -26.93237305 53.92944336 C-28.2468289 46.06689108 -28.78286982 41.7522868 -24 35 C-22.75675853 31.7750792 -22.75675853 31.7750792 -22 29 C-23.98 27.02 -25.96 25.04 -28 23 C-26.56673886 19.52873217 -24.89674713 17.89197388 -21.859375 15.72265625 C-21.03566406 15.12646484 -20.21195312 14.53027344 -19.36328125 13.91601562 C-18.50089844 13.30435547 -17.63851563 12.69269531 -16.75 12.0625 C-15.05602808 10.84681087 -13.3632923 9.62939718 -11.671875 8.41015625 C-10.86943359 7.83281738 -10.06699219 7.25547852 -9.24023438 6.66064453 C-7.24997543 5.18530219 -5.34202691 3.66032389 -3.453125 2.05859375 C-1 0 -1 0 0 0 Z " fill="#9857B6" transform="translate(284,235)"/>
<path d="M0 0 C3.125 -0.5 3.125 -0.5 7 0 C9.64760765 2.3152484 11.45095278 4.84909713 13 8 C13 10.95098441 12.4545683 12.26873796 10.921875 14.734375 C8.28920639 21.20449277 10.81270082 30.31042743 12.0625 37 C14.24641236 49.66669172 12.96530703 59.33152847 8 71 C7.34 71 6.68 71 6 71 C5.87625 71.94875 5.7525 72.8975 5.625 73.875 C5 77 5 77 3 79 C0.25598489 74.82254415 -1.39800229 70.54921609 -3.0625 65.875 C-5.07464885 60.22637227 -5.07464885 60.22637227 -8 55 C-7.86328125 52.27734375 -7.86328125 52.27734375 -7.3125 48.9375 C-7.01666016 47.08125 -7.01666016 47.08125 -6.71484375 45.1875 C-6.47824186 43.79138102 -6.23986231 42.39556251 -6 41 C-5.5927825 38.60965825 -5.18620226 36.21921983 -4.78198242 33.82836914 C-4.51527215 32.26154629 -4.24348137 30.69557787 -3.96606445 29.13061523 C-2.40470255 21.42511295 -2.40470255 21.42511295 -5.0625 14.4375 C-7 11 -7 11 -6.875 8.75 C-6 7 -6 7 -4 4 C-3.34 4 -2.68 4 -2 4 C-1.34 2.68 -0.68 1.36 0 0 Z " fill="#060407" transform="translate(247,259)"/>
<path d="M0 0 C-0.99 0.99 -1.98 1.98 -3 3 C-2.34 3.66 -1.68 4.32 -1 5 C-1.61359375 5.24492187 -2.2271875 5.48984375 -2.859375 5.7421875 C-5.42635567 7.25052285 -6.03857904 8.44256788 -7.25 11.125 C-7.58515625 11.84945312 -7.9203125 12.57390625 -8.265625 13.3203125 C-8.50796875 13.87460938 -8.7503125 14.42890625 -9 15 C-9.66 15 -10.32 15 -11 15 C-11 13.35 -11 11.7 -11 10 C-11.91136719 10.35191406 -12.82273438 10.70382813 -13.76171875 11.06640625 C-21.90767203 14.18172626 -30.10435327 17.10672862 -38.375 19.875 C-39.75691528 20.34015015 -39.75691528 20.34015015 -41.16674805 20.81469727 C-42.45705933 21.24286743 -42.45705933 21.24286743 -43.7734375 21.6796875 C-44.92465088 22.06229736 -44.92465088 22.06229736 -46.09912109 22.45263672 C-48 23 -48 23 -50 23 C-52.0204134 42.45269664 -52.0204134 42.45269664 -47.38232422 60.63916016 C-43.22819567 64.58754891 -38.46296939 66.49106257 -33 68 C-33.185625 68.61875 -33.37125 69.2375 -33.5625 69.875 C-34.23686176 72.04160178 -34.23686176 72.04160178 -33 74 C-40.85984147 71.05783962 -49.49829509 67.57641474 -55 61 C-57.66251463 54.31164683 -56.60558714 46.82561745 -56.0625 39.8125 C-55.97709402 37.88770537 -55.89955008 35.96254496 -55.83007812 34.03710938 C-55.64392424 29.34894289 -55.35166252 24.67854358 -55 20 C-54.12827148 19.66734131 -53.25654297 19.33468262 -52.35839844 18.99194336 C-51.2037207 18.54987549 -50.04904297 18.10780762 -48.859375 17.65234375 C-47.71952148 17.21656006 -46.57966797 16.78077637 -45.40527344 16.33178711 C-42.32775368 15.12818299 -39.28558632 13.86757108 -36.25 12.5625 C-30.64021122 10.18912782 -24.92868384 8.21418187 -19.16845703 6.24609375 C-14.155663 4.499745 -9.50517489 2.41845329 -4.8828125 -0.21484375 C-3 -1 -3 -1 0 0 Z " fill="#834E9F" transform="translate(209,230)"/>
<path d="M0 0 C-0.66 0 -1.32 0 -2 0 C-2 0.66 -2 1.32 -2 2 C-0.02 2 1.96 2 4 2 C3.46375 2.2475 2.9275 2.495 2.375 2.75 C-3.21678266 5.6930435 -6.76958741 7.89571292 -9 14 C-9.49316876 16.67858327 -9.76549087 19.2796941 -10 22 C-9.34 22 -8.68 22 -8 22 C-7.75765625 21.38640625 -7.5153125 20.7728125 -7.265625 20.140625 C-5.2742427 16.77248457 -2.64858228 16.08729775 0.9140625 14.75 C6.55636641 13.37870589 12.23672058 13.70104026 18 14 C18.495 14.99 18.495 14.99 19 16 C17.67935547 16.07347656 17.67935547 16.07347656 16.33203125 16.1484375 C14.58986328 16.26058594 14.58986328 16.26058594 12.8125 16.375 C11.66394531 16.44460937 10.51539063 16.51421875 9.33203125 16.5859375 C6.20040883 16.97509574 3.84714191 17.6809851 1 19 C2.08667969 19.09474609 2.08667969 19.09474609 3.1953125 19.19140625 C8.3368142 19.84266313 12.07798775 20.31697701 15.5625 24.375 C18.77334186 28.70058517 20.43966437 32.25382214 20.3359375 37.76171875 C19.72542916 41.82940806 17.87877375 45.37665063 16 49 C15.67 48.01 15.34 47.02 15 46 C12.36 46.33 9.72 46.66 7 47 C8 45 8 45 9.9375 44.1875 C12.16438773 43.12798223 12.16438773 43.12798223 13.3125 40.8125 C14.2183567 37.10672258 13.98769347 34.68738897 13 31 C11.38300481 27.87916526 11.38300481 27.87916526 8 26 C3.66778738 25.29109248 -0.61455659 25.0706294 -5 25 C-5.99 26.98 -6.98 28.96 -8 31 C-9.8125 30.5 -9.8125 30.5 -12 29 C-15.36611509 22.61598863 -15.60287257 17.02058185 -14 10 C-12.89724869 7.50202856 -11.84595626 6.06970854 -10 4 C-9.34 4 -8.68 4 -8 4 C-8 3.34 -8 2.68 -8 2 C-3.61016949 -1.20338983 -3.61016949 -1.20338983 0 0 Z " fill="#854AA7" transform="translate(202,182)"/>
<path d="M0 0 C5.63697334 3.03815736 10.62918814 6.58302804 15.6875 10.5 C16.43322266 11.06847656 17.17894531 11.63695312 17.94726562 12.22265625 C21.5741638 15.01158241 24.73993308 17.73993308 28 21 C23.71 25.62 19.42 30.24 15 35 C6.89937619 28.05660817 3.75700054 23.96427731 1.75 13.9375 C1.57726562 13.14794922 1.40453125 12.35839844 1.2265625 11.54492188 C0.40220074 7.64228864 -0.22602309 4.01190978 0 0 Z " fill="#FAF4FB" transform="translate(217,236)"/>
<path d="M0 0 C2.51406843 7.5422053 -1.45434149 18.6813983 -4 26 C-6.23102187 30.08229534 -9.32153455 33.17102766 -13 36 C-16.78487299 34.45479956 -19.02199536 32.12937113 -21.75 29.125 C-22.54921875 28.26132812 -23.3484375 27.39765625 -24.171875 26.5078125 C-26 24 -26 24 -26 20 C-24.11483919 18.23950305 -22.33544477 16.79795397 -20.25 15.3125 C-19.66959961 14.88332275 -19.08919922 14.45414551 -18.49121094 14.01196289 C-17.27788715 13.11576528 -16.06067594 12.22480936 -14.83984375 11.33886719 C-12.48926344 9.62833343 -10.16543698 7.8836548 -7.84277344 6.13549805 C-6.32057755 4.99058462 -4.79322063 3.85254259 -3.265625 2.71484375 C-1.14692833 1.19261667 -1.14692833 1.19261667 0 0 Z " fill="#FAF5FB" transform="translate(283,235)"/>
<path d="M0 0 C3.23275203 2.92487088 5.82883792 6.02385602 6.21484375 10.48046875 C5.55160274 16.95407465 4.4303477 23.26808448 3.0625 29.625 C2.89290771 30.4193042 2.72331543 31.2136084 2.54858398 32.03198242 C1.24725819 37.75274181 1.24725819 37.75274181 -1 40 C-4.6691978 32.32232274 -7.70007978 24.5748528 -10.375 16.5 C-10.74238281 15.43007813 -11.10976562 14.36015625 -11.48828125 13.2578125 C-11.82988281 12.23429687 -12.17148438 11.21078125 -12.5234375 10.15625 C-12.83200684 9.23650391 -13.14057617 8.31675781 -13.45849609 7.36914062 C-14 5 -14 5 -13 2 C-10.69 3.98 -8.38 5.96 -6 8 C-5.34 6.68 -4.68 5.36 -4 4 C-2.70529025 2.62913085 -1.37849103 1.28659163 0 0 Z " fill="#F5F3F5" transform="translate(239,269)"/>
<path d="M0 0 C0.7425 0.78375 1.485 1.5675 2.25 2.375 C4.54433318 4.56504531 6.12158858 5.82731386 9 7 C9.61875 6.175 10.2375 5.35 10.875 4.5 C11.57625 3.675 12.2775 2.85 13 2 C13.66 2 14.32 2 15 2 C14.81824219 2.53367187 14.63648438 3.06734375 14.44921875 3.6171875 C13.13341939 7.51735175 11.87253635 11.41474752 10.75 15.375 C9.17468553 20.67378503 7.31723779 25.86574798 5.4375 31.0625 C5.13231445 31.92085449 4.82712891 32.77920898 4.51269531 33.66357422 C4.2184668 34.46682129 3.92423828 35.27006836 3.62109375 36.09765625 C3.3573999 36.82476807 3.09370605 37.55187988 2.82202148 38.30102539 C2 40 2 40 0 41 C-6.49132658 10.98893664 -6.49132658 10.98893664 -4.1953125 4.84765625 C-3.00316576 2.99852353 -1.55147356 1.55147356 0 0 Z " fill="#F8F6F7" transform="translate(261,269)"/>
<path d="M0 0 C3.31895585 3.7930924 6.11774093 8.90341355 5.921875 14.0546875 C4.52163334 17.00943472 2.38509146 17.70476168 -0.5 19.125 C-4.46431737 20.82394536 -4.46431737 20.82394536 -7 24 C-6.34 24 -5.68 24 -5 24 C-3.203125 25.79296875 -3.203125 25.79296875 -1.25 28.1875 C-0.59515625 28.96480469 0.0596875 29.74210937 0.734375 30.54296875 C2 33 2 33 1.49609375 35.47265625 C-0.26853144 38.45362884 -2.29484378 40.74375674 -4.6875 43.25 C-8.63519441 47.46049317 -12.22771998 51.75487526 -15.625 56.41796875 C-16.305625 57.20107422 -16.305625 57.20107422 -17 58 C-17.66 58 -18.32 58 -19 58 C-19.27602051 58.59441895 -19.55204102 59.18883789 -19.83642578 59.80126953 C-20.93794952 61.88274724 -22.06503249 63.42210824 -23.6171875 65.1796875 C-24.13627686 65.77225342 -24.65536621 66.36481934 -25.19018555 66.9753418 C-25.74617432 67.602229 -26.30216309 68.22911621 -26.875 68.875 C-28.04582159 70.21202186 -29.21638823 71.54926702 -30.38671875 72.88671875 C-30.98403809 73.56653809 -31.58135742 74.24635742 -32.19677734 74.94677734 C-35.03917583 78.18324786 -37.86862092 81.43053425 -40.6875 84.6875 C-41.44426025 85.55060791 -41.44426025 85.55060791 -42.21630859 86.43115234 C-44.56229473 89.14488329 -46.61485981 91.6708034 -48 95 C-49.32 95 -50.64 95 -52 95 C-50.91721869 92.34226405 -49.81228471 90.81553237 -47.7421875 88.78125 C-44.25611862 85.24552202 -41.41462101 81.3747845 -38.48632812 77.37695312 C-37.36854767 75.88373497 -36.1889176 74.43722251 -35 73 C-34.34 73 -33.68 73 -33 73 C-32.7525 72.45859375 -32.505 71.9171875 -32.25 71.359375 C-30.72011396 68.4717151 -28.90849003 65.90223982 -27 63.25 C-26.29875 62.26515625 -25.5975 61.2803125 -24.875 60.265625 C-24.25625 59.51796875 -23.6375 58.7703125 -23 58 C-22.34 58 -21.68 58 -21 58 C-21 57.34 -21 56.68 -21 56 C-20.34 56 -19.68 56 -19 56 C-18.773125 55.30132812 -18.54625 54.60265625 -18.3125 53.8828125 C-16.72334082 50.39233787 -14.49760798 47.73654514 -12 44.875 C-9.51989238 41.99098913 -7.11504273 39.1725641 -5 36 C-4.34 36 -3.68 36 -3 36 C-6.93673525 28.48549227 -6.93673525 28.48549227 -13 23 C-13 22.01 -13 21.02 -13 20 C-11.04414675 18.99515796 -9.08523763 17.99626195 -7.125 17 C-6.03445313 16.443125 -4.94390625 15.88625 -3.8203125 15.3125 C-1 14 -1 14 1 14 C0.505 11.525 0.505 11.525 0 9 C0.66 9 1.32 9 2 9 C1.505 7.88625 1.505 7.88625 1 6.75 C0 4 0 4 0 0 Z " fill="#8747A6" transform="translate(305,248)"/>
<path d="M0 0 C0.75780762 -0.00064453 1.51561523 -0.00128906 2.29638672 -0.00195312 C11.50182233 0.0804892 20.61535653 1.11956673 29.75 2.1875 C28.76 2.5175 27.77 2.8475 26.75 3.1875 C26.75 3.8475 26.75 4.5075 26.75 5.1875 C25.67105469 5.20731934 24.59210938 5.22713867 23.48046875 5.24755859 C19.44720567 5.3240856 15.4142814 5.41272737 11.38134766 5.50488281 C9.64150724 5.54297915 7.90159324 5.57786447 6.16162109 5.609375 C3.64914795 5.65544901 1.137173 5.7133695 -1.375 5.7734375 C-2.52705933 5.79076431 -2.52705933 5.79076431 -3.70239258 5.80844116 C-11.57453177 6.01976873 -19.73085416 7.49431862 -26.25 12.1875 C-28.07629794 15.25430799 -28.07629794 15.25430799 -29.25 18.1875 C-32.26490557 19.19246852 -34.29181692 19.29085303 -37.4375 19.25 C-38.78908203 19.23646484 -38.78908203 19.23646484 -40.16796875 19.22265625 C-40.85503906 19.21105469 -41.54210937 19.19945312 -42.25 19.1875 C-41.92 17.8675 -41.59 16.5475 -41.25 15.1875 C-38.61 14.8575 -35.97 14.5275 -33.25 14.1875 C-33.188125 13.630625 -33.12625 13.07375 -33.0625 12.5 C-31.88812335 9.15754338 -30.10735731 7.17195035 -27.25 5.1875 C-18.4229142 1.04332827 -9.62556223 -0.00870501 0 0 Z " fill="#8C54AB" transform="translate(242.25,164.8125)"/>
<path d="M0 0 C0.33 0.66 0.66 1.32 1 2 C1.66 2 2.32 2 3 2 C3.65818702 11.05007158 1.33060767 19.33184629 -1 28 C-1.32355469 29.21945312 -1.64710938 30.43890625 -1.98046875 31.6953125 C-3.77394142 37.77115868 -3.77394142 37.77115868 -5 40 C-7.62890625 41.31640625 -7.62890625 41.31640625 -10 42 C-9.01 39.03 -8.02 36.06 -7 33 C-7.66 33 -8.32 33 -9 33 C-9.2475 33.61875 -9.495 34.2375 -9.75 34.875 C-11.22047178 37.37480203 -12.41403076 37.83316022 -15 39 C-17.19602066 36.79124879 -19.26080867 34.59005725 -21 32 C-20.875 29.0625 -20.875 29.0625 -20 27 C-18.35 28.65 -16.7 30.3 -15 32 C-10.42877119 29.9267138 -7.63257608 27.27537072 -5 23 C-3.63874213 19.08655887 -2.86298145 15.13403465 -2.125 11.0625 C-1.91359375 9.99708984 -1.7021875 8.93167969 -1.484375 7.83398438 C-0.96975898 5.22581681 -0.47566182 2.61550156 0 0 Z " fill="#9B57BD" transform="translate(283,238)"/>
<path d="M0 0 C0.495 1.485 0.495 1.485 1 3 C1.66 3.33 2.32 3.66 3 4 C2.28972656 4.77085937 1.57945312 5.54171875 0.84765625 6.3359375 C-0.0808471 7.34885024 -1.00922606 8.36187701 -1.9375 9.375 C-2.40607422 9.88289063 -2.87464844 10.39078125 -3.35742188 10.9140625 C-5.97726768 13.74265854 -5.97726768 13.74265854 -8 17 C-8.66 17 -9.32 17 -10 17 C-10.27602051 17.59441895 -10.55204102 18.18883789 -10.83642578 18.80126953 C-11.93794952 20.88274724 -13.06503249 22.42210824 -14.6171875 24.1796875 C-15.13627686 24.77225342 -15.65536621 25.36481934 -16.19018555 25.9753418 C-16.74617432 26.602229 -17.30216309 27.22911621 -17.875 27.875 C-19.04582159 29.21202186 -20.21638823 30.54926702 -21.38671875 31.88671875 C-21.98403809 32.56653809 -22.58135742 33.24635742 -23.19677734 33.94677734 C-26.03917583 37.18324786 -28.86862092 40.43053425 -31.6875 43.6875 C-32.19200684 44.26290527 -32.69651367 44.83831055 -33.21630859 45.43115234 C-35.56229473 48.14488329 -37.61485981 50.6708034 -39 54 C-40.32 54 -41.64 54 -43 54 C-41.91721869 51.34226405 -40.81228471 49.81553237 -38.7421875 47.78125 C-35.25611862 44.24552202 -32.41462101 40.3747845 -29.48632812 36.37695312 C-28.36854767 34.88373497 -27.1889176 33.43722251 -26 32 C-25.34 32 -24.68 32 -24 32 C-23.7525 31.45859375 -23.505 30.9171875 -23.25 30.359375 C-21.72011396 27.4717151 -19.90849003 24.90223982 -18 22.25 C-17.29875 21.26515625 -16.5975 20.2803125 -15.875 19.265625 C-15.25625 18.51796875 -14.6375 17.7703125 -14 17 C-13.34 17 -12.68 17 -12 17 C-12 16.34 -12 15.68 -12 15 C-11.34 15 -10.68 15 -10 15 C-9.75507813 14.28457031 -9.51015625 13.56914062 -9.2578125 12.83203125 C-7.84640324 9.65416879 -6.08718481 7.36353001 -3.875 4.6875 C-3.15054688 3.80449219 -2.42609375 2.92148437 -1.6796875 2.01171875 C-1.12539063 1.34785156 -0.57109375 0.68398438 0 0 Z " fill="#814B9C" transform="translate(296,289)"/>
<path d="M0 0 C0.33 0 0.66 0 1 0 C1.01458252 1.04454346 1.02916504 2.08908691 1.04418945 3.1652832 C1.10215551 7.04014345 1.17938774 10.91442151 1.26245117 14.78881836 C1.29570863 16.46580559 1.32373808 18.14290497 1.34643555 19.82006836 C1.37996737 22.23079225 1.43227978 24.64048762 1.48828125 27.05078125 C1.49467117 27.80087967 1.5010611 28.55097809 1.50764465 29.32380676 C1.59888472 33.45600986 1.59888472 33.45600986 3.53198242 36.99682617 C4.01642822 37.32787354 4.50087402 37.6589209 5 38 C-14.61702128 52 -14.61702128 52 -18 52 C-18 51.01 -18 50.02 -18 49 C-18.99 48.67 -19.98 48.34 -21 48 C-20.39937744 47.78947998 -19.79875488 47.57895996 -19.17993164 47.36206055 C-12.08896502 44.61732538 -5.3887655 41.40459148 -1 35 C2.48000371 24.16153618 0.83868292 11.17790059 0 0 Z " fill="#894AA7" transform="translate(341,253)"/>
<path d="M0 0 C10.395 0.99 10.395 0.99 21 2 C20.01 2.33 19.02 2.66 18 3 C18 3.66 18 4.32 18 5 C12.48243524 5.0493521 6.96499829 5.08569662 1.44726562 5.10986328 C-0.43068682 5.11993534 -2.30862353 5.13359362 -4.18652344 5.15087891 C-6.8822009 5.17507453 -9.57767146 5.18647083 -12.2734375 5.1953125 C-13.11619232 5.20563507 -13.95894714 5.21595764 -14.82723999 5.22659302 C-16.88621247 5.22699144 -18.94467935 5.12257588 -21 5 C-21.66 4.34 -22.32 3.68 -23 3 C-20.11734851 2.03911617 -18.32337729 1.88329059 -15.33203125 1.90234375 C-14.43935547 1.90556641 -13.54667969 1.90878906 -12.62695312 1.91210938 C-11.23379883 1.92467773 -11.23379883 1.92467773 -9.8125 1.9375 C-8.87212891 1.94201172 -7.93175781 1.94652344 -6.96289062 1.95117188 C-4.64186288 1.96295374 -2.32096356 1.97940442 0 2 C0 1.34 0 0.68 0 0 Z " fill="#8F51B2" transform="translate(251,165)"/>
<path d="M0 0 C0.99 0 1.98 0 3 0 C4.51493732 3.02987465 4.21885356 6.19975727 4.28125 9.52734375 C4.29965942 10.27206436 4.31806885 11.01678497 4.33703613 11.78407288 C4.39584418 14.16846755 4.44862609 16.55293426 4.5 18.9375 C4.5676756 22.07176553 4.64137624 25.20580436 4.71875 28.33984375 C4.73232544 29.06179428 4.74590088 29.78374481 4.7598877 30.52757263 C4.83616084 33.60278169 5.02026676 36.06080029 6 39 C2.125 38.125 2.125 38.125 1 37 C0.83989519 34.26298822 0.74053172 31.5483241 0.68359375 28.80859375 C0.66281265 27.98875504 0.64203156 27.16891632 0.62062073 26.32423401 C0.55503506 23.69541099 0.49619874 21.06648496 0.4375 18.4375 C0.39432333 16.65949439 0.35070933 14.88149935 0.30664062 13.10351562 C0.19934457 8.73578366 0.09810296 4.36794773 0 0 Z " fill="#9953C2" transform="translate(341,251)"/>
<path d="M0 0 C0.66 0 1.32 0 2 0 C1.125 6.75 1.125 6.75 0 9 C3.465 8.505 3.465 8.505 7 8 C6.73046875 9.88671875 6.73046875 9.88671875 6 12 C2.38390779 14.3905908 -1.23789644 15.06804496 -5.5 14.6875 C-6.325 14.460625 -7.15 14.23375 -8 14 C-8 13.34 -8 12.68 -8 12 C-8.99 11.67 -9.98 11.34 -11 11 C-7.25 9 -7.25 9 -5 9 C-4.67 7.68 -4.34 6.36 -4 5 C-3.34 5 -2.68 5 -2 5 C-1.855625 4.360625 -1.71125 3.72125 -1.5625 3.0625 C-1 1 -1 1 0 0 Z " fill="#9D4EC5" transform="translate(253,334)"/>
<path d="M0 0 C0.33 0 0.66 0 1 0 C1.144375 1.093125 1.28875 2.18625 1.4375 3.3125 C1.88288104 6.93122987 1.88288104 6.93122987 3 10 C3.66 10 4.32 10 5 10 C3.39306847 15.08050068 1.42353736 19.96184129 -0.625 24.875 C-0.94984375 25.65875 -1.2746875 26.4425 -1.609375 27.25 C-2.40440762 29.16743162 -3.20194851 31.0838229 -4 33 C-4.495 31.515 -4.495 31.515 -5 30 C-5.99 30.33 -6.98 30.66 -8 31 C-7.67 29.35 -7.34 27.7 -7 26 C-6.34 26 -5.68 26 -5 26 C-4.87882813 25.40832031 -4.75765625 24.81664062 -4.6328125 24.20703125 C-4.46523437 23.41683594 -4.29765625 22.62664062 -4.125 21.8125 C-3.96257812 21.03519531 -3.80015625 20.25789063 -3.6328125 19.45703125 C-3 17 -3 17 -1.96875 14.59375 C-0.8389365 11.56876546 -0.58708299 8.90409204 -0.375 5.6875 C-0.30023438 4.61886719 -0.22546875 3.55023438 -0.1484375 2.44921875 C-0.09945313 1.64097656 -0.05046875 0.83273437 0 0 Z " fill="#8D4EAC" transform="translate(260,304)"/>
<path d="M0 0 C0.33 0.66 0.66 1.32 1 2 C-0.79706823 5.688719 -2.74302823 7.61155403 -6 10 C-6.33 10.99 -6.66 11.98 -7 13 C-5.68 13 -4.36 13 -3 13 C-2.67 12.34 -2.34 11.68 -2 11 C-1.34 11.66 -0.68 12.32 0 13 C-2.95333999 15.00745255 -5.91346032 17.00466826 -8.875 19 C-9.71675781 19.57234375 -10.55851562 20.1446875 -11.42578125 20.734375 C-12.23144531 21.27578125 -13.03710938 21.8171875 -13.8671875 22.375 C-14.98262939 23.12910156 -14.98262939 23.12910156 -16.12060547 23.8984375 C-18 25 -18 25 -20 25 C-18.26727919 20.74215557 -15.24188592 17.59897968 -12.25 14.1875 C-11.73695313 13.59646484 -11.22390625 13.00542969 -10.6953125 12.39648438 C-9.66098629 11.20493018 -8.6251835 10.01465609 -7.58789062 8.82568359 C-5.04174415 5.89824151 -2.52074446 2.94931607 0 0 Z " fill="#1A0823" transform="translate(278,316)"/>
<path d="M0 0 C-0.33 0.66 -0.66 1.32 -1 2 C-2.134375 2.268125 -3.26875 2.53625 -4.4375 2.8125 C-8.16990357 3.59469131 -8.16990357 3.59469131 -9.3125 6.5625 C-9.539375 7.366875 -9.76625 8.17125 -10 9 C-12.88861709 10.44430855 -14.79647701 10.37688506 -18 10 C-20.875 7.5 -20.875 7.5 -23 5 C-19.40420992 3.48251061 -15.84382862 2.33858181 -12.0625 1.375 C-11.06347656 1.11460937 -10.06445312 0.85421875 -9.03515625 0.5859375 C-5.94675951 -0.01027809 -3.13707819 -0.10285502 0 0 Z " fill="#8B4BB0" transform="translate(247,179)"/>
<path d="M0 0 C4.02769174 3.77596101 7.4037721 7.91808463 10.8203125 12.25 C13.05554824 15.07008236 15.33501207 17.84925706 17.625 20.625 C20.79783612 24.48829787 23.86184705 28.40327189 26.80859375 32.44140625 C28.05508457 34.14331668 28.05508457 34.14331668 30 36 C28.02 36.495 28.02 36.495 26 37 C25.7525 36.44441406 25.505 35.88882813 25.25 35.31640625 C21.42673135 28.23141154 15.23216969 22.19952396 9.8125 16.3125 C0.81907934 6.48999837 0.81907934 6.48999837 -1 3 C-0.67 2.01 -0.34 1.02 0 0 Z " fill="#84549C" transform="translate(217,306)"/>
<path d="M0 0 C1.485 0.99 1.485 0.99 3 2 C5.0974965 1.9114965 5.0974965 1.9114965 7.3125 1.4375 C11.72836371 0.8323898 14.28667426 1.30783884 18 4 C18.875 6.1875 18.875 6.1875 19 8 C18.01 8.495 18.01 8.495 17 9 C14.64018187 8.06421005 12.30368736 7.06652192 10 6 C9.67 8.97 9.34 11.94 9 15 C8.67 14.34 8.34 13.68 8 13 C7.34 13 6.68 13 6 13 C6.33 11.02 6.66 9.04 7 7 C6.34 7 5.68 7 5 7 C4.01 6.67 3.02 6.34 2 6 C0.8125 2.9375 0.8125 2.9375 0 0 Z " fill="#8844AB" transform="translate(278,227)"/>
<path d="M0 0 C3.33120584 3.22374759 6.49562556 6.57963968 9.625 10 C10.38039062 10.825 11.13578125 11.65 11.9140625 12.5 C13.91016279 14.89232994 15.47873498 17.28691589 17 20 C12.25 18.125 12.25 18.125 10 17 C10 16.34 10 15.68 10 15 C9.34 14.773125 8.68 14.54625 8 14.3125 C4.07265467 12.59428642 0.58739822 10.33225393 -3 8 C-1 7 -1 7 2 6 C1.34 4.02 0.68 2.04 0 0 Z " fill="#190821" transform="translate(227,322)"/>
<path d="M0 0 C2.50916948 3.80282434 2.25607884 7.66162039 2.1953125 12.046875 C2.1924826 12.81807678 2.18965271 13.58927856 2.18673706 14.3838501 C2.17557013 16.83939332 2.15047229 19.2945676 2.125 21.75 C2.11496568 23.41796347 2.10584061 25.08593268 2.09765625 26.75390625 C2.07564225 30.83607897 2.04113667 34.917977 2 39 C1.34 39 0.68 39 0 39 C-0.02505615 38.0620459 -0.0501123 37.1240918 -0.07592773 36.15771484 C-0.17140884 32.65760709 -0.27062064 29.15764549 -0.37231445 25.65771484 C-0.41546354 24.14668874 -0.45715156 22.63562014 -0.49731445 21.12451172 C-0.55550563 18.94485706 -0.61905552 16.76541237 -0.68359375 14.5859375 C-0.73858032 12.62213135 -0.73858032 12.62213135 -0.79467773 10.61865234 C-0.98085682 7.33738432 -1.38676816 4.22546854 -2 1 C-1.34 0.67 -0.68 0.34 0 0 Z " fill="#9A55BF" transform="translate(156,249)"/>
<path d="M0 0 C0.66 0 1.32 0 2 0 C2 3.96 2 7.92 2 12 C3.32 12.66 4.64 13.32 6 14 C6.66 14.556875 7.32 15.11375 8 15.6875 C9.88294404 17.22090247 9.88294404 17.22090247 12 16.8125 C14.06348821 15.97420791 16.03678574 15.05172193 18 14 C16.47793991 16.62901288 15.15634036 18.84365964 13 21 C9.875 21.125 9.875 21.125 7 21 C7 20.34 7 19.68 7 19 C5.68 18.34 4.36 17.68 3 17 C3 15.68 3 14.36 3 13 C2.34 13 1.68 13 1 13 C1 10.36 1 7.72 1 5 C0.34 5 -0.32 5 -1 5 C-1 5.99 -1 6.98 -1 8 C-1.99 7.67 -2.98 7.34 -4 7 C-3.34 7 -2.68 7 -2 7 C-1.855625 6.401875 -1.71125 5.80375 -1.5625 5.1875 C-1.1127561 3.43849596 -0.57107659 1.71322977 0 0 Z " fill="#8F49B2" transform="translate(239,237)"/>
<path d="M0 0 C0 0.66 0 1.32 0 2 C-0.66 2 -1.32 2 -2 2 C-2.66 3.32 -3.32 4.64 -4 6 C-4.495 4.515 -4.495 4.515 -5 3 C-5.99 3.165 -6.98 3.33 -8 3.5 C-12.36981748 4.04818499 -16.72674245 4.11291687 -21.125 4.125 C-21.805625 4.12951172 -22.48625 4.13402344 -23.1875 4.13867188 C-27.24450899 4.12683235 -31.01200571 3.6867082 -35 3 C-37.95503794 2.74761242 -40.91335259 2.59060211 -43.875 2.4375 C-44.65875 2.39431641 -45.4425 2.35113281 -46.25 2.30664062 C-48.16650649 2.20146649 -50.08323333 2.10032075 -52 2 C-52 1.67 -52 1.34 -52 1 C-51.43259094 1.00222061 -50.86518188 1.00444122 -50.28057861 1.00672913 C-44.3758609 1.02884984 -38.47115495 1.04393501 -32.56640625 1.05493164 C-30.36262534 1.05996088 -28.15884778 1.06678505 -25.95507812 1.07543945 C-22.78775204 1.0875666 -19.62047006 1.09324241 -16.453125 1.09765625 C-15.46757629 1.10281754 -14.48202759 1.10797882 -13.46661377 1.11329651 C-12.5459613 1.11337204 -11.62530884 1.11344757 -10.67675781 1.11352539 C-9.8684552 1.115746 -9.06015259 1.11796661 -8.22735596 1.12025452 C-5.39332113 0.96724553 -2.8248627 0 0 0 Z " fill="#13051D" transform="translate(284,169)"/>
<path d="M0 0 C2.39237424 0.91352647 4.67756103 1.91619515 7 3 C5.1875 4.0625 5.1875 4.0625 3 5 C2.01 4.67 1.02 4.34 0 4 C0 4.66 0 5.32 0 6 C-11.52164009 2.92482916 -11.52164009 2.92482916 -17 1 C-14.92446352 0.4465236 -13.15634036 0 -11 0 C-11.66 -0.66 -12.32 -1.32 -13 -2 C-9.08061604 -3.95969198 -3.99596189 -1.26794944 0 0 Z " fill="#8448A3" transform="translate(327,242)"/>
<path d="M0 0 C2.14593645 3.21890467 3.22567573 6.16435827 4.5 9.8125 C4.9228125 11.01519531 5.345625 12.21789062 5.78125 13.45703125 C6.87339756 16.63196023 7.94559076 19.81236467 9 23 C5.46808678 19.56846086 2.2862495 16.02624938 -0.8125 12.1875 C-1.99779297 10.72376953 -1.99779297 10.72376953 -3.20703125 9.23046875 C-3.79871094 8.49441406 -4.39039063 7.75835937 -5 7 C-3.68 6.67 -2.36 6.34 -1 6 C-0.67 4.02 -0.34 2.04 0 0 Z " fill="#200B2A" transform="translate(237,318)"/>
<path d="M0 0 C3.03901272 2.56528426 4.24652224 5.42319941 5.75 9.0625 C6.19859375 10.12597656 6.6471875 11.18945312 7.109375 12.28515625 C8 15 8 15 7 17 C6.01268258 18.34275169 5.01405257 19.67732273 4 21 C2.99619084 18.20964954 1.9968055 15.41785145 1 12.625 C0.57074219 11.43390625 0.57074219 11.43390625 0.1328125 10.21875 C-0.13789063 9.45820313 -0.40859375 8.69765625 -0.6875 7.9140625 C-0.93886719 7.2123291 -1.19023437 6.5105957 -1.44921875 5.78759766 C-2 4 -2 4 -2 2 C-1.34 2 -0.68 2 0 2 C0 1.34 0 0.68 0 0 Z " fill="#8C4EA9" transform="translate(239,314)"/>
<path d="M0 0 C0.99 0.99 1.98 1.98 3 3 C2.67 3.66 2.34 4.32 2 5 C0.35 4.67 -1.3 4.34 -3 4 C-2.71125 4.721875 -2.4225 5.44375 -2.125 6.1875 C-1.08333333 8.79166667 -0.04166667 11.39583333 1 14 C0.01 13.67 -0.98 13.34 -2 13 C-2.99 14.485 -2.99 14.485 -4 16 C-5.98 12.04 -7.96 8.08 -10 4 C-7.525 4.99 -7.525 4.99 -5 6 C-5.33 4.35 -5.66 2.7 -6 1 C-3.03 1.495 -3.03 1.495 0 2 C0 1.34 0 0.68 0 0 Z " fill="#854DA3" transform="translate(301,216)"/>
<path d="M0 0 C5.75 1.875 5.75 1.875 8 3 C8 3.66 8 4.32 8 5 C10.475 5.99 10.475 5.99 13 7 C13 8.65 13 10.3 13 12 C12.01 12.495 12.01 12.495 11 13 C11 12.34 11 11.68 11 11 C10.278125 10.731875 9.55625 10.46375 8.8125 10.1875 C1.546875 7.11979167 1.546875 7.11979167 -0.3125 3.3125 C-0.539375 2.549375 -0.76625 1.78625 -1 1 C-0.67 0.67 -0.34 0.34 0 0 Z " fill="#9452B4" transform="translate(175,299)"/>
<path d="M0 0 C3.62711213 3.55509366 7.06821452 7.20781604 10.375 11.0625 C10.83777344 11.57876953 11.30054688 12.09503906 11.77734375 12.62695312 C13.0859375 14.16015625 13.0859375 14.16015625 15 17 C14.7890625 19.37109375 14.7890625 19.37109375 14 21 C9.91886051 17.14842461 6.11379174 13.10705885 2.5 8.8125 C1.8090625 7.99394531 1.118125 7.17539062 0.40625 6.33203125 C-1 4 -1 4 -0.71875 1.69921875 C-0.4815625 1.13847656 -0.244375 0.57773437 0 0 Z " fill="#834A9C" transform="translate(202,288)"/>
<path d="M0 0 C0.33 0 0.66 0 1 0 C1.01458252 1.04454346 1.02916504 2.08908691 1.04418945 3.1652832 C1.10215551 7.04014345 1.17938774 10.91442151 1.26245117 14.78881836 C1.29570863 16.46580559 1.32373808 18.14290497 1.34643555 19.82006836 C1.37996737 22.23079225 1.43227978 24.64048762 1.48828125 27.05078125 C1.49467117 27.80087967 1.5010611 28.55097809 1.50764465 29.32380676 C1.59888472 33.45600986 1.59888472 33.45600986 3.53198242 36.99682617 C4.01642822 37.32787354 4.50087402 37.6589209 5 38 C0.25 42 0.25 42 -2 42 C-2 41.01 -2 40.02 -2 39 C-4.475 39.495 -4.475 39.495 -7 40 C-3.25 36.125 -3.25 36.125 -1 35 C-0.67 23.45 -0.34 11.9 0 0 Z " fill="#673782" transform="translate(341,253)"/>
<path d="M0 0 C5.94 0 11.88 0 18 0 C18.33 0.66 18.66 1.32 19 2 C19.99 2.66 20.98 3.32 22 4 C18.52334905 5.06888524 15.32862522 5.11475767 11.703125 5.09765625 C10.49785156 5.09443359 9.29257812 5.09121094 8.05078125 5.08789062 C6.79652344 5.07951172 5.54226563 5.07113281 4.25 5.0625 C2.98027344 5.05798828 1.71054687 5.05347656 0.40234375 5.04882812 C-2.73181836 5.03704556 -5.86588541 5.02059416 -9 5 C-9 4.67 -9 4.34 -9 4 C-3.06 4 2.88 4 9 4 C9 3.34 9 2.68 9 2 C6.03 1.67 3.06 1.34 0 1 C0 0.67 0 0.34 0 0 Z " fill="#7B4598" transform="translate(260,166)"/>
<path d="M0 0 C0.66 0 1.32 0 2 0 C2 0.66 2 1.32 2 2 C5.62528568 2.20140476 7.86501708 1.85776765 11 0 C10.938125 1.258125 10.87625 2.51625 10.8125 3.8125 C10.76367078 7.16958979 10.76367078 7.16958979 12.5 10 C12.995 10.33 13.49 10.66 14 11 C9.53968427 11.44603157 7.47384873 11.2983492 3.625 8.875 C0.76965824 5.74772093 0.19358631 4.16210575 0 0 Z " fill="#7D419A" transform="translate(218,231)"/>
<path d="M0 0 C0.66 0.99 1.32 1.98 2 3 C1.26394531 3.79664063 0.52789062 4.59328125 -0.23046875 5.4140625 C-1.21621999 6.4843067 -2.20189288 7.55462307 -3.1875 8.625 C-3.67025391 9.14707031 -4.15300781 9.66914063 -4.65039062 10.20703125 C-11.19774204 17.00212652 -11.19774204 17.00212652 -16 25 C-17.32 25 -18.64 25 -20 25 C-18.91721869 22.34226405 -17.81228471 20.81553237 -15.7421875 18.78125 C-12.25611862 15.24552202 -9.41462101 11.3747845 -6.48632812 7.37695312 C-5.36854767 5.88373497 -4.1889176 4.43722251 -3 3 C-2.34 3 -1.68 3 -1 3 C-0.67 2.01 -0.34 1.02 0 0 Z " fill="#764C92" transform="translate(273,318)"/>
<path d="M0 0 C5.15464734 0.48324819 8.81550319 3.18610761 13 6 C12.34 7.32 11.68 8.64 11 10 C5.97307937 9.54300722 2.85103739 7.00758252 -1 4 C-0.67 2.68 -0.34 1.36 0 0 Z " fill="#8F55AF" transform="translate(205,319)"/>
<path d="M0 0 C1.5 1.375 1.5 1.375 3 3 C3 3.66 3 4.32 3 5 C8.445 6.485 8.445 6.485 14 8 C14 8.66 14 9.32 14 10 C14.66 10.66 15.32 11.32 16 12 C12.94807521 12.96484618 10.9628162 13.00348185 7.875 12.1875 C7.19179688 12.01605469 6.50859375 11.84460938 5.8046875 11.66796875 C4 11 4 11 2 9 C2.66 8.01 3.32 7.02 4 6 C3.01 6 2.02 6 1 6 C0.67 4.02 0.34 2.04 0 0 Z " fill="#8249A3" transform="translate(302,230)"/>
<path d="M0 0 C0.7425 0.78375 1.485 1.5675 2.25 2.375 C4.54433318 4.56504531 6.12158858 5.82731386 9 7 C9.61875 6.175 10.2375 5.35 10.875 4.5 C11.57625 3.675 12.2775 2.85 13 2 C13.66 2 14.32 2 15 2 C14.80664062 2.556875 14.61328125 3.11375 14.4140625 3.6875 C12.68625575 8.75117127 11.2306933 13.79322065 10 19 C9.67 19 9.34 19 9 19 C9.495 14.545 9.495 14.545 10 10 C8.68 10 7.36 10 6 10 C6 9.34 6 8.68 6 8 C5.01 7.67 4.02 7.34 3 7 C3 6.01 3 5.02 3 4 C1.02 4.33 -0.96 4.66 -3 5 C-1.125 1.125 -1.125 1.125 0 0 Z " fill="#F1DDF5" transform="translate(261,269)"/>
<path d="M0 0 C2.64 1.98 5.28 3.96 8 6 C9.32 5.01 10.64 4.02 12 3 C12.66 4.32 13.32 5.64 14 7 C12.35 8.98 10.7 10.96 9 13 C5.63279613 11.60667426 4.0140476 10.0210714 2 7 C2.66 7 3.32 7 4 7 C3.01 5.824375 3.01 5.824375 2 4.625 C0 2 0 2 0 0 Z " fill="#9859BB" transform="translate(224,264)"/>
<path d="M0 0 C0.33 0.66 0.66 1.32 1 2 C0.11957031 2.04898438 -0.76085937 2.09796875 -1.66796875 2.1484375 C-3.41013672 2.26058594 -3.41013672 2.26058594 -5.1875 2.375 C-6.91033203 2.47941406 -6.91033203 2.47941406 -8.66796875 2.5859375 C-11.82657745 2.97844925 -14.12124155 3.69734937 -17 5 C-19.92824652 5.97608217 -21.95613276 6.08226668 -25 6 C-18.22847359 -1.30342879 -9.23556345 -0.35022502 0 0 Z " fill="#6E3D8D" transform="translate(220,196)"/>
<path d="M0 0 C0.66 0.33 1.32 0.66 2 1 C-2.14700856 4.90306688 -2.82543444 5 -9 5 C-9 16.22 -9 27.44 -9 39 C-9.33 39 -9.66 39 -10 39 C-10 27.45 -10 15.9 -10 4 C-6.7 2.68 -3.4 1.36 0 0 Z " fill="#280A37" transform="translate(169,249)"/>
<path d="M0 0 C0 0.99 0 1.98 0 3 C-3.96 4.32 -7.92 5.64 -12 7 C-12 6.34 -12 5.68 -12 5 C-12.66 5 -13.32 5 -14 5 C-14 4.01 -14 3.02 -14 2 C-8.77729131 -0.66464729 -5.9180497 -1.32854177 0 0 Z " fill="#9556B4" transform="translate(175,245)"/>
<path d="M0 0 C0.33 0.66 0.66 1.32 1 2 C1.99 2 2.98 2 4 2 C4 2.66 4 3.32 4 4 C-0.12426536 4.22512171 -4.24933849 4.42725588 -8.375 4.625 C-9.550625 4.68945312 -10.72625 4.75390625 -11.9375 4.8203125 C-13.61972656 4.89765625 -13.61972656 4.89765625 -15.3359375 4.9765625 C-16.37282715 5.02893066 -17.4097168 5.08129883 -18.47802734 5.13525391 C-21 5 -21 5 -23 3 C-20.11734851 2.03911617 -18.32337729 1.88329059 -15.33203125 1.90234375 C-14.43935547 1.90556641 -13.54667969 1.90878906 -12.62695312 1.91210938 C-11.23379883 1.92467773 -11.23379883 1.92467773 -9.8125 1.9375 C-8.87212891 1.94201172 -7.93175781 1.94652344 -6.96289062 1.95117188 C-4.64186288 1.96295374 -2.32096356 1.97940442 0 2 C0 1.34 0 0.68 0 0 Z " fill="#9852C2" transform="translate(251,165)"/>
<path d="M0 0 C0 0.66 0 1.32 0 2 C-2.31 2.33 -4.62 2.66 -7 3 C-7 4.65 -7 6.3 -7 8 C-8.2684375 7.5359375 -8.2684375 7.5359375 -9.5625 7.0625 C-13.01770876 5.88872686 -13.01770876 5.88872686 -16.8125 5.5 C-17.864375 5.335 -18.91625 5.17 -20 5 C-20.33 4.34 -20.66 3.68 -21 3 C-16.6853425 1.39180948 -12.84016909 0.66056352 -8.25 0.375 C-7.12078125 0.30023438 -5.9915625 0.22546875 -4.828125 0.1484375 C-3.22020281 0.06404379 -1.61013542 0 0 0 Z " fill="#260F33" transform="translate(223,197)"/>
<path d="M0 0 C0.33 0 0.66 0 1 0 C1.12375 0.78375 1.2475 1.5675 1.375 2.375 C1.79117993 5.14057822 1.79117993 5.14057822 4 7 C1.03 10.63 -1.94 14.26 -5 18 C-6.39214652 13.82356045 -4.70664266 11.16562207 -3.0625 7.3125 C-2.77181641 6.61060547 -2.48113281 5.90871094 -2.18164062 5.18554688 C-1.46289687 3.45349225 -0.73254669 1.72626219 0 0 Z " fill="#1F0927" transform="translate(261,322)"/>
<path d="M0 0 C0.33 0 0.66 0 1 0 C1.17835515 4.54805635 0.99785435 7.8794254 -1 12 C-1.66 12 -2.32 12 -3 12 C-2.773125 12.763125 -2.54625 13.52625 -2.3125 14.3125 C-2.209375 15.199375 -2.10625 16.08625 -2 17 C-2.97648017 18.02297922 -3.98131338 19.01904252 -5 20 C-5.33 21.175625 -5.66 22.35125 -6 23.5625 C-7 27 -7 27 -10 29 C-8.45291143 23.64553744 -6.83573464 18.36071952 -4.828125 13.16015625 C-3.78984943 10.45182423 -2.80149189 7.72669242 -1.8125 5 C-1.29623047 3.576875 -1.29623047 3.576875 -0.76953125 2.125 C-0.51558594 1.42375 -0.26164062 0.7225 0 0 Z " fill="#1D0928" transform="translate(272,293)"/>
<path d="M0 0 C6 2 12 4 18 6 C18 6.33 18 6.66 18 7 C12.1977825 7.36263859 8.36000789 6.25684543 3 4 C3.28875 4.51949219 3.5775 5.03898438 3.875 5.57421875 C7.56239016 12.50087873 7.56239016 12.50087873 7 17 C6.72414063 16.44441406 6.44828125 15.88882813 6.1640625 15.31640625 C5.35869969 13.7137883 4.54007969 12.11778922 3.7109375 10.52734375 C3.27007812 9.67269531 2.82921875 8.81804687 2.375 7.9375 C1.92898438 7.08027344 1.48296875 6.22304687 1.0234375 5.33984375 C0 3 0 3 0 0 Z " fill="#1C0527" transform="translate(302,239)"/>
<path d="M0 0 C1.1446875 1.175625 1.1446875 1.175625 2.3125 2.375 C4.90891805 5.07257717 4.90891805 5.07257717 8 7 C7.67 8.65 7.34 10.3 7 12 C3.20048294 10.50733258 1.1645138 8.44718865 -1 5 C-0.75 2.1875 -0.75 2.1875 0 0 Z " fill="#9757B6" transform="translate(263,265)"/>
<path d="M0 0 C-0.25 2.375 -0.25 2.375 -1 5 C-3.90442032 7.17831524 -6.45124947 7.19715281 -10 7 C-10.33 6.34 -10.66 5.68 -11 5 C-10.34 5 -9.68 5 -9 5 C-8.7525 4.360625 -8.505 3.72125 -8.25 3.0625 C-7 1 -7 1 -5.0625 0.25 C-3 0 -3 0 0 0 Z " fill="#8E4DB3" transform="translate(339,292)"/>
<path d="M0 0 C0 2 0 2 -1.609375 3.65625 C-2.31578125 4.2646875 -3.0221875 4.873125 -3.75 5.5 C-4.44609375 6.1084375 -5.1421875 6.716875 -5.859375 7.34375 C-7.89833153 8.9213368 -9.56911373 10.14147271 -12 11 C-15.75 9.625 -15.75 9.625 -19 8 C-18.67 7.01 -18.34 6.02 -18 5 C-17.34 5.66 -16.68 6.32 -16 7 C-11.86855376 7.49941369 -11.86855376 7.49941369 -8.3125 5.6875 C-7.6628125 4.8521875 -7.6628125 4.8521875 -7 4 C-3.15384615 0 -3.15384615 0 0 0 Z " fill="#150620" transform="translate(245,181)"/>
<path d="M0 0 C0.33 0.66 0.66 1.32 1 2 C-0.54115394 6.16111563 -2.12614955 9.57874946 -5 13 C-5.99 12.67 -6.98 12.34 -8 12 C-7.41463247 8.33939179 -5.916761 6.45464836 -3.4375 3.75 C-2.79683594 3.04359375 -2.15617188 2.3371875 -1.49609375 1.609375 C-0.75552734 0.81273437 -0.75552734 0.81273437 0 0 Z " fill="#934FB2" transform="translate(244,257)"/>
<path d="M0 0 C-1.485 1.485 -1.485 1.485 -3 3 C-2.34 3.66 -1.68 4.32 -1 5 C-1.928125 5.3403125 -1.928125 5.3403125 -2.875 5.6875 C-5.61410209 7.37929835 -6.05024472 8.99244161 -7 12 C-7.33 12 -7.66 12 -8 12 C-8 10.02 -8 8.04 -8 6 C-8.66 6 -9.32 6 -10 6 C-10.66 5.34 -11.32 4.68 -12 4 C-10.56988027 3.13353333 -9.13059381 2.28218171 -7.6875 1.4375 C-6.48673828 0.72400391 -6.48673828 0.72400391 -5.26171875 -0.00390625 C-3 -1 -3 -1 0 0 Z " fill="#8846A7" transform="translate(209,230)"/>
<path d="M0 0 C1.29608947 0.93137592 2.58671632 1.8703566 3.875 2.8125 C4.59429687 3.33457031 5.31359375 3.85664063 6.0546875 4.39453125 C8 6 8 6 10 9 C9.01 9 8.02 9 7 9 C7.33 11.31 7.66 13.62 8 16 C5.70351643 13.10414095 3.95652443 10.1827969 2.3125 6.875 C1.65701172 5.57175781 1.65701172 5.57175781 0.98828125 4.2421875 C0 2 0 2 0 0 Z " fill="#8848AA" transform="translate(268,218)"/>
<path d="M0 0 C0.33 0.66 0.66 1.32 1 2 C1.99 2.33 2.98 2.66 4 3 C5.1875 6.5625 5.1875 6.5625 6 10 C4.68 10.33 3.36 10.66 2 11 C1.67 10.01 1.34 9.02 1 8 C-1.00016466 6.79117904 -1.00016466 6.79117904 -3 6 C-2.01 5.67 -1.02 5.34 0 5 C0 3.35 0 1.7 0 0 Z " fill="#9A48C1" transform="translate(298,227)"/>
<path d="M0 0 C0.66 0.99 1.32 1.98 2 3 C1.00200236 6.99199058 -0.55799862 8.82006579 -4 11 C-5.32 10.34 -6.64 9.68 -8 9 C-3.375 4.125 -3.375 4.125 0 3 C0 2.01 0 1.02 0 0 Z " fill="#9452B6" transform="translate(276,234)"/>
<path d="M0 0 C2.31 0 4.62 0 7 0 C7 0.66 7 1.32 7 2 C6.154375 2.185625 5.30875 2.37125 4.4375 2.5625 C-0.09509046 4.45794692 -2.74687672 7.40039022 -6 11 C-6.33 10.01 -6.66 9.02 -7 8 C-5.6875 5.8125 -5.6875 5.8125 -4 4 C-3.34 4 -2.68 4 -2 4 C-1.34 2.68 -0.68 1.36 0 0 Z " fill="#190627" transform="translate(247,259)"/>
<path d="M0 0 C0.928125 0.2784375 0.928125 0.2784375 1.875 0.5625 C4.04160178 1.23686176 4.04160178 1.23686176 6 0 C7.67654729 0.27942455 9.34608154 0.60828247 11 1 C10.67 1.99 10.34 2.98 10 4 C7.03 3.505 7.03 3.505 4 3 C4.33 4.65 4.66 6.3 5 8 C2.525 7.01 2.525 7.01 0 6 C0 4.02 0 2.04 0 0 Z " fill="#994EBE" transform="translate(291,214)"/>
<path d="M0 0 C0.33 0.66 0.66 1.32 1 2 C1.99 1.67 2.98 1.34 4 1 C3.71125 1.680625 3.4225 2.36125 3.125 3.0625 C1.87402645 6.32893093 0.92552045 9.62846123 0 13 C-0.66 12.01 -1.32 11.02 -2 10 C-2.99 10.495 -2.99 10.495 -4 11 C-3.5247412 9.35303396 -3.04468109 7.70745272 -2.5625 6.0625 C-2.29566406 5.14597656 -2.02882812 4.22945312 -1.75390625 3.28515625 C-1 1 -1 1 0 0 Z " fill="#7F429B" transform="translate(197,243)"/>
<path d="M0 0 C0.598125 0.165 1.19625 0.33 1.8125 0.5 C4.11344336 1.1114124 4.11344336 1.1114124 7 1 C6.01 1.495 6.01 1.495 5 2 C5 4.64 5 7.28 5 10 C4.01 10.33 3.02 10.66 2 11 C2.33 9.02 2.66 7.04 3 5 C1.68 5 0.36 5 -1 5 C-0.67 3.35 -0.34 1.7 0 0 Z " fill="#9D52BF" transform="translate(196,234)"/>
<path d="M0 0 C3.81530628 3.27026253 6.40632712 7.23853564 8 12 C7.67 12.99 7.34 13.98 7 15 C3 15 3 15 1 14 C1 13.34 1 12.68 1 12 C1.99 12 2.98 12 4 12 C4 10.68 4 9.36 4 8 C3.34 8 2.68 8 2 8 C1.34 5.36 0.68 2.72 0 0 Z " fill="#925CAA" transform="translate(293,201)"/>
<path d="M0 0 C0.33 1.65 0.66 3.3 1 5 C-1.31 5 -3.62 5 -6 5 C-6 4.34 -6 3.68 -6 3 C-7.32 2.34 -8.64 1.68 -10 1 C-3.71428571 -1.42857143 -3.71428571 -1.42857143 0 0 Z " fill="#251532" transform="translate(210,185)"/>
<path d="M0 0 C-0.33 0.66 -0.66 1.32 -1 2 C-2.7015625 2.433125 -2.7015625 2.433125 -4.4375 2.875 C-8.05886586 3.61302892 -8.05886586 3.61302892 -9.4375 6.125 C-9.623125 6.74375 -9.80875 7.3625 -10 8 C-10 6.35 -10 4.7 -10 3 C-10.99 3.495 -10.99 3.495 -12 4 C-13.99960012 4.039992 -16.00047242 4.04346799 -18 4 C-18 3.67 -18 3.34 -18 3 C-16.12743583 2.49095343 -14.25180659 1.99317545 -12.375 1.5 C-11.33085937 1.2215625 -10.28671875 0.943125 -9.2109375 0.65625 C-6.04312582 0.00881404 -3.22258533 -0.1161292 0 0 Z " fill="#753F94" transform="translate(247,179)"/>
<path d="M0 0 C1 3 1 3 0 6 C0.66 6.33 1.32 6.66 2 7 C-0.97 9.475 -0.97 9.475 -4 12 C-4.12375 11.360625 -4.2475 10.72125 -4.375 10.0625 C-4.58125 9.381875 -4.7875 8.70125 -5 8 C-5.66 7.67 -6.32 7.34 -7 7 C-5.37660195 5.29115995 -3.70680947 3.62553283 -2 2 C-1.34 2 -0.68 2 0 2 C0 1.34 0 0.68 0 0 Z " fill="#8147A0" transform="translate(284,169)"/>
<path d="M0 0 C0 0.66 0 1.32 0 2 C-0.66 2 -1.32 2 -2 2 C-2.66 3.32 -3.32 4.64 -4 6 C-4.33 5.01 -4.66 4.02 -5 3 C-12.59 3 -20.18 3 -28 3 C-28 2.67 -28 2.34 -28 2 C-27.03175293 1.96241577 -27.03175293 1.96241577 -26.04394531 1.92407227 C-23.11244106 1.80785567 -20.18123783 1.68524558 -17.25 1.5625 C-16.23421875 1.52318359 -15.2184375 1.48386719 -14.171875 1.44335938 C-13.1921875 1.40146484 -12.2125 1.35957031 -11.203125 1.31640625 C-9.85202637 1.26141968 -9.85202637 1.26141968 -8.47363281 1.20532227 C-5.57514321 0.96473504 -2.89376925 0 0 0 Z " fill="#250835" transform="translate(284,169)"/>
<path d="M0 0 C4.21422242 2.88341534 5.76075855 5.04303419 7 10 C6.01 9.67 5.02 9.34 4 9 C3.34 9.66 2.68 10.32 2 11 C-1.875 5.25 -1.875 5.25 -3 3 C-2.01 3.33 -1.02 3.66 0 4 C0 2.68 0 1.36 0 0 Z " fill="#7D469D" transform="translate(214,204)"/>
<path d="M0 0 C5.83410138 5.63963134 5.83410138 5.63963134 6.3125 9.5625 C6.209375 10.366875 6.10625 11.17125 6 12 C5.01 12.66 4.02 13.32 3 14 C1.56286626 10.13770308 0.88907746 7.1041341 1 3 C0.67 2.01 0.34 1.02 0 0 Z " fill="#854DA2" transform="translate(287,192)"/>
<path d="M0 0 C6 6 6 6 6.0625 8.5625 C6.041875 9.366875 6.02125 10.17125 6 11 C1.93459004 9.64486335 1.02699731 7.69203082 -1 4 C-0.75 1.625 -0.75 1.625 0 0 Z " fill="#9353B8" transform="translate(283,189)"/>
<path d="M0 0 C2.64 1.98 5.28 3.96 8 6 C8.33 5.01 8.66 4.02 9 3 C9.33 3.99 9.66 4.98 10 6 C8.824375 6.37125 8.824375 6.37125 7.625 6.75 C4.6083499 8.18650005 4.28434435 9.04720831 3 12 C2.49440092 10.56445975 1.9957251 9.1264798 1.5 7.6875 C1.2215625 6.88699219 0.943125 6.08648437 0.65625 5.26171875 C0 3 0 3 0 0 Z " fill="#F0D8F8" transform="translate(225,271)"/>
<path d="M0 0 C0.66 0.66 1.32 1.32 2 2 C-0.66666667 2.66666667 -3.33333333 3.33333333 -6 4 C-6.74765625 4.18691406 -7.4953125 4.37382812 -8.265625 4.56640625 C-8.83796875 4.70949219 -9.4103125 4.85257813 -10 5 C-10 4.01 -10 3.02 -10 2 C-10.66 1.67 -11.32 1.34 -12 1 C-7.56323657 -0.79583282 -4.64998633 -1.26817809 0 0 Z " fill="#8E49B2" transform="translate(230,169)"/>
<path d="M0 0 C0.99 0.33 1.98 0.66 3 1 C3 1.66 3 2.32 3 3 C5.475 3.99 5.475 3.99 8 5 C7.01 5.33 6.02 5.66 5 6 C5.66 7.32 6.32 8.64 7 10 C3.06326356 8.68775452 0.77280706 7.08089673 -2 4 C-0.68 4 0.64 4 2 4 C2 3.34 2 2.68 2 2 C1.34 2 0.68 2 0 2 C0 1.34 0 0.68 0 0 Z " fill="#824E9D" transform="translate(234,336)"/>
<path d="M0 0 C0 0.99 0 1.98 0 3 C-2 5 -2 5 -5 7 C-7.1875 6.625 -7.1875 6.625 -9 6 C-9 5.01 -9 4.02 -9 3 C-2.25 0 -2.25 0 0 0 Z " fill="#9556B8" transform="translate(307,312)"/>
<path d="M0 0 C2.16308594 1.13208008 2.16308594 1.13208008 4 3 C4.45410156 5.26831055 4.45410156 5.26831055 4.390625 7.88671875 C4.37773437 8.82451172 4.36484375 9.76230469 4.3515625 10.72851562 C4.31804687 11.70498047 4.28453125 12.68144531 4.25 13.6875 C4.23195313 14.67556641 4.21390625 15.66363281 4.1953125 16.68164062 C4.14815447 19.12206842 4.08236042 21.56054769 4 24 C3.67 24 3.34 24 3 24 C2.67 17.07 2.34 10.14 2 3 C1.01 3 0.02 3 -1 3 C-1.33 3.66 -1.66 4.32 -2 5 C-2.33 3.68 -2.66 2.36 -3 1 C-2.01 0.67 -1.02 0.34 0 0 Z " fill="#9153B1" transform="translate(342,248)"/>
<path d="M0 0 C0.33 0.66 0.66 1.32 1 2 C1.66 2 2.32 2 3 2 C4.2077558 5.62326739 3.54311128 6.64146369 2 10 C1.67 9.01 1.34 8.02 1 7 C-1.64 7.33 -4.28 7.66 -7 8 C-6 6 -6 6 -4.0625 5.125 C-1.57998766 3.77090236 -1.03128603 2.57821507 0 0 Z " fill="#8146A3" transform="translate(216,221)"/>
<path d="M0 0 C3.0916909 2.52956528 3.90931332 5.22454612 5 9 C1.37 7.68 -2.26 6.36 -6 5 C-4.68 4.67 -3.36 4.34 -2 4 C-2 3.34 -2 2.68 -2 2 C-1.34 2 -0.68 2 0 2 C0 1.34 0 0.68 0 0 Z " fill="#1E0A2C" transform="translate(292,223)"/>
<path d="M0 0 C0 0.66 0 1.32 0 2 C1.32 2.33 2.64 2.66 4 3 C2.35 4.32 0.7 5.64 -1 7 C-1.66 6.67 -2.32 6.34 -3 6 C-2.67 5.34 -2.34 4.68 -2 4 C-3.98 4.33 -5.96 4.66 -8 5 C-3.16129032 0 -3.16129032 0 0 0 Z " fill="#794298" transform="translate(298,316)"/>
<path d="M0 0 C0.66 0.33 1.32 0.66 2 1 C1.01 2.485 1.01 2.485 0 4 C0.66 4.66 1.32 5.32 2 6 C0.02 7.32 -1.96 8.64 -4 10 C-4.66 9.67 -5.32 9.34 -6 9 C-5.01 8.67 -4.02 8.34 -3 8 C-3 7.01 -3 6.02 -3 5 C-4.32 5.33 -5.64 5.66 -7 6 C-4.74259377 3.66475218 -2.7194239 1.81294927 0 0 Z " fill="#814C9C" transform="translate(310,307)"/>
<path d="M0 0 C1.36511719 0.43119141 1.36511719 0.43119141 2.7578125 0.87109375 C3.45648438 1.09925781 4.15515625 1.32742187 4.875 1.5625 C4.875 1.8925 4.875 2.2225 4.875 2.5625 C-3.69642857 1.70535714 -3.69642857 1.70535714 -7.125 -0.4375 C-4.30685434 -1.84657283 -2.95222796 -0.94622691 0 0 Z M-11.125 1.5625 C-9.84625 1.500625 -8.5675 1.43875 -7.25 1.375 C-6.17105469 1.32279297 -6.17105469 1.32279297 -5.0703125 1.26953125 C-4.42835938 1.36621094 -3.78640625 1.46289062 -3.125 1.5625 C-2.465 2.5525 -1.805 3.5425 -1.125 4.5625 C-7.75 3.8125 -7.75 3.8125 -11.125 1.5625 Z " fill="#7E4A9B" transform="translate(321.125,240.4375)"/>
<path d="M0 0 C0 0.66 0 1.32 0 2 C-0.99 2 -1.98 2 -3 2 C-3.66 3.65 -4.32 5.3 -5 7 C-5.99 7 -6.98 7 -8 7 C-8.625 5.125 -8.625 5.125 -9 3 C-6.15236477 0.15236477 -3.96383452 0 0 0 Z " fill="#9557B9" transform="translate(271,336)"/>
<path d="M0 0 C2.31 0.66 4.62 1.32 7 2 C3.80009492 4.74277578 0.99500618 6.6302836 -3 8 C-2.67 7.01 -2.34 6.02 -2 5 C-1.01 5 -0.02 5 1 5 C1 4.34 1 3.68 1 3 C-0.65 3.33 -2.3 3.66 -4 4 C-2.68 2.68 -1.36 1.36 0 0 Z " fill="#8E5AA8" transform="translate(270,333)"/>
<path d="M0 0 C0.99 0 1.98 0 3 0 C3.99 3.3 4.98 6.6 6 10 C4.35 9.67 2.7 9.34 1 9 C0.67 6.03 0.34 3.06 0 0 Z " fill="#9B5FBB" transform="translate(227,285)"/>
<path d="M0 0 C0.66 0 1.32 0 2 0 C4.27678571 8.03571429 4.27678571 8.03571429 3 12 C3 11.34 3 10.68 3 10 C2.01 10 1.02 10 0 10 C-1.36952673 7.26094655 -1.12621361 5.02912668 -1 2 C-0.67 1.34 -0.34 0.68 0 0 Z " fill="#9C5FBA" transform="translate(216,241)"/>
<path d="M0 0 C-0.6875 2.375 -0.6875 2.375 -2 5 C-4.625 6.3125 -4.625 6.3125 -7 7 C-6.67 5.68 -6.34 4.36 -6 3 C-6.99 2.67 -7.98 2.34 -9 2 C-5.62902617 0.50178941 -3.79557881 0 0 0 Z " fill="#8951AC" transform="translate(296,320)"/>
<path d="M0 0 C0.33 0.66 0.66 1.32 1 2 C1.99 2 2.98 2 4 2 C4.38218767 3.65614657 4.71395102 5.32457024 5 7 C4.67 7.33 4.34 7.66 4 8 C4.08937803 9.52519276 4.24537146 11.04681929 4.4375 12.5625 C4.53933594 13.38878906 4.64117187 14.21507812 4.74609375 15.06640625 C4.82988281 15.70449219 4.91367188 16.34257812 5 17 C0.9117914 12.9117914 0.69865592 5.58924735 0 0 Z " fill="#854AA1" transform="translate(215,249)"/>
<path d="M0 0 C0.33 0 0.66 0 1 0 C1.22181406 2.43695715 1.42791119 4.873526 1.625 7.3125 C1.68945312 8.00279297 1.75390625 8.69308594 1.8203125 9.40429688 C2.11802847 13.2559972 2.20763723 14.68854416 0 18 C-1.23180249 11.84098757 -0.73030908 6.21324498 0 0 Z " fill="#995CB7" transform="translate(282,243)"/>
<path d="M0 0 C0 0.66 0 1.32 0 2 C-0.99 2 -1.98 2 -3 2 C-2.67 2.99 -2.34 3.98 -2 5 C-3.98 5.99 -5.96 6.98 -8 8 C-8 7.01 -8 6.02 -8 5 C-8.66 4.67 -9.32 4.34 -10 4 C-8.71086513 3.32845067 -7.41859796 2.66291141 -6.125 2 C-5.40570313 1.62875 -4.68640625 1.2575 -3.9453125 0.875 C-2 0 -2 0 0 0 Z " fill="#7B409E" transform="translate(306,262)"/>
<path d="M0 0 C0.66 0 1.32 0 2 0 C2 3.96 2 7.92 2 12 C2.99 12.33 3.98 12.66 5 13 C4.34 13.66 3.68 14.32 3 15 C3 14.34 3 13.68 3 13 C2.34 13 1.68 13 1 13 C1 10.36 1 7.72 1 5 C0.34 5 -0.32 5 -1 5 C-1 5.99 -1 6.98 -1 8 C-1.99 7.67 -2.98 7.34 -4 7 C-3.34 7 -2.68 7 -2 7 C-1.855625 6.401875 -1.71125 5.80375 -1.5625 5.1875 C-1.1127561 3.43849596 -0.57107659 1.71322977 0 0 Z " fill="#71428B" transform="translate(239,237)"/>
<path d="M0 0 C2.31 0.66 4.62 1.32 7 2 C7 2.66 7 3.32 7 4 C7.66 4.66 8.32 5.32 9 6 C5.94736336 6.98120464 4.05263664 6.98120464 1 6 C0.67 4.02 0.34 2.04 0 0 Z " fill="#9E65BF" transform="translate(309,236)"/>
<path d="M0 0 C1.12758089 3.38274266 0.81750262 4.76778223 0.0625 8.1875 C-0.13214844 9.08855469 -0.32679688 9.98960937 -0.52734375 10.91796875 C-0.68332031 11.60503906 -0.83929688 12.29210937 -1 13 C-1.33 13 -1.66 13 -2 13 C-2.33 11.02 -2.66 9.04 -3 7 C-3.99 6.67 -4.98 6.34 -6 6 C-4 4 -2 2 0 0 Z " fill="#F6E1FB" transform="translate(283,235)"/>
<path d="M0 0 C-0.33 2.64 -0.66 5.28 -1 8 C-2.98 6.68 -4.96 5.36 -7 4 C-5 1 -5 1 -2.9375 0.3125 C-1 0 -1 0 0 0 Z " fill="#9A52C0" transform="translate(227,234)"/>
<path d="M0 0 C2.74277578 3.19990508 4.6302836 6.00499382 6 10 C2.22454612 8.90931332 -0.47043472 8.0916909 -3 5 C-2.01 5 -1.02 5 0 5 C0 3.35 0 1.7 0 0 Z " fill="#240B32" transform="translate(288,202)"/>
<path d="M0 0 C0.66 0.66 1.32 1.32 2 2 C1.38125 2.5775 0.7625 3.155 0.125 3.75 C-1.81347053 5.80249821 -2.90014249 7.43366582 -4 10 C-5.32 10 -6.64 10 -8 10 C-6.44303593 6.17836093 -3.96591316 3.81381505 -1 1 C-0.67 0.67 -0.34 0.34 0 0 Z " fill="#6A3982" transform="translate(261,333)"/>
<path d="M0 0 C0.33 0 0.66 0 1 0 C1 2.64 1 5.28 1 8 C0.01 8.33 -0.98 8.66 -2 9 C-2 9.99 -2 10.98 -2 12 C-1.34 12 -0.68 12 0 12 C0 12.66 0 13.32 0 14 C-1.32 13.67 -2.64 13.34 -4 13 C-3.27991594 8.39146203 -1.68704061 4.32762591 0 0 Z " fill="#260D33" transform="translate(198,249)"/>
<path d="M0 0 C0.41176754 3.60296594 0.1535853 4.78402067 -2 7.8125 C-2.66 8.534375 -3.32 9.25625 -4 10 C-4.79953138 6.71303767 -5.09658936 5.28976808 -4 2 C-1 0 -1 0 0 0 Z " fill="#9450B5" transform="translate(196,252)"/>
<path d="M0 0 C0.99 0 1.98 0 3 0 C4.31626692 3.61973402 5 6.09567131 5 10 C2 9 2 9 0.8125 6.6875 C0 4 0 4 0 0 Z " fill="#9450B8" transform="translate(302,247)"/>
<path d="M0 0 C0.66 0 1.32 0 2 0 C4 3 4 3 3.6875 5.875 C3.3471875 7.421875 3.3471875 7.421875 3 9 C2.814375 9.94875 2.62875 10.8975 2.4375 11.875 C2.2209375 12.926875 2.2209375 12.926875 2 14 C1.67 14 1.34 14 1 14 C0.67 9.38 0.34 4.76 0 0 Z " fill="#8745A9" transform="translate(213,234)"/>
<path d="M0 0 C0.33 0.99 0.66 1.98 1 3 C0.34 3.66 -0.32 4.32 -1 5 C-1.99 5 -2.98 5 -4 5 C-4 5.66 -4 6.32 -4 7 C-6.31 7 -8.62 7 -11 7 C-8.3144406 4.3144406 -5.62378672 3.93950026 -2 3 C-2 2.34 -2 1.68 -2 1 C-1.34 0.67 -0.68 0.34 0 0 Z " fill="#9B55BE" transform="translate(193,235)"/>
<path d="M0 0 C3.59634744 3.49359465 6.83451967 7.11098131 10 11 C8.68 11.33 7.36 11.66 6 12 C5.773125 11.484375 5.54625 10.96875 5.3125 10.4375 C3.5024447 7.07596873 1.26003596 4.07088856 -1 1 C-0.67 0.67 -0.34 0.34 0 0 Z " fill="#673C7F" transform="translate(237,331)"/>
<path d="M0 0 C0.66 0 1.32 0 2 0 C1.65930765 3.15140423 1.41923159 4.60781561 -0.9375 6.8125 C-3 8 -3 8 -5 8 C-5 8.66 -5 9.32 -5 10 C-5.66 9.67 -6.32 9.34 -7 9 C-5.88266271 7.49428343 -4.75589965 5.99555708 -3.625 4.5 C-2.99851562 3.6646875 -2.37203125 2.829375 -1.7265625 1.96875 C-1.15679687 1.3190625 -0.58703125 0.669375 0 0 Z " fill="#1D0B25" transform="translate(286,306)"/>
<path d="M0 0 C5.80205656 5.64524422 5.80205656 5.64524422 8 9 C8 9.66 8 10.32 8 11 C3.92145952 9.64048651 2.49306887 7.43639222 0 4 C0 2.68 0 1.36 0 0 Z " fill="#754B8A" transform="translate(229,321)"/>
<path d="M0 0 C0 0.66 0 1.32 0 2 C-0.99 2.66 -1.98 3.32 -3 4 C-2.01 4.66 -1.02 5.32 0 6 C-1.98 6.99 -1.98 6.99 -4 8 C-4.33 7.34 -4.66 6.68 -5 6 C-7.02463255 5.34786708 -7.02463255 5.34786708 -9 5 C-7.87926138 4.16094435 -6.75325453 3.32892169 -5.625 2.5 C-4.99851562 2.0359375 -4.37203125 1.571875 -3.7265625 1.09375 C-2 0 -2 0 0 0 Z " fill="#7E449D" transform="translate(284,325)"/>
<path d="M0 0 C1.32 0.66 2.64 1.32 4 2 C4 3.32 4 4.64 4 6 C3.34 6 2.68 6 2 6 C1.67 5.34 1.34 4.68 1 4 C-0.65 5.32 -2.3 6.64 -4 8 C-4.33 7.01 -4.66 6.02 -5 5 C-4.01 5 -3.02 5 -2 5 C-1.34 3.35 -0.68 1.7 0 0 Z " fill="#A05AC1" transform="translate(282,232)"/>
<path d="M0 0 C0.99 1.32 1.98 2.64 3 4 C0.63707344 6.52588702 -0.66462511 7.88820837 -4 9 C-4 7 -4 7 -2 5 C-2.33 4.01 -2.66 3.02 -3 2 C-2.01 1.34 -1.02 0.68 0 0 Z " fill="#804CA5" transform="translate(261,339)"/>
<path d="M0 0 C2 1 2 1 2.8515625 3.28515625 C3.10679687 4.20167969 3.36203125 5.11820312 3.625 6.0625 C3.88539063 6.98160156 4.14578125 7.90070313 4.4140625 8.84765625 C4.60742188 9.55792969 4.80078125 10.26820313 5 11 C2.03595495 8.19195732 -0.44499019 5.81684226 -2 2 C-1.34 2 -0.68 2 0 2 C0 1.34 0 0.68 0 0 Z " fill="#220630" transform="translate(241,330)"/>
<path d="M0 0 C0.33 0.99 0.66 1.98 1 3 C-0.21484375 4.82421875 -0.21484375 4.82421875 -1.9375 6.6875 C-2.50339844 7.31011719 -3.06929688 7.93273437 -3.65234375 8.57421875 C-4.09707031 9.04472656 -4.54179687 9.51523437 -5 10 C-5.33 9.01 -5.66 8.02 -6 7 C-4.78515625 5.17578125 -4.78515625 5.17578125 -3.0625 3.3125 C-2.49660156 2.68988281 -1.93070312 2.06726563 -1.34765625 1.42578125 C-0.90292969 0.95527344 -0.45820313 0.48476563 0 0 Z " fill="#8C56A5" transform="translate(280,310)"/>
<path d="M0 0 C4.875 4.625 4.875 4.625 6 8 C5.34 8.66 4.68 9.32 4 10 C4 8.68 4 7.36 4 6 C3.34 6 2.68 6 2 6 C1.67 6.66 1.34 7.32 1 8 C0.34 6.68 -0.32 5.36 -1 4 C-0.34 4 0.32 4 1 4 C0.67 2.68 0.34 1.36 0 0 Z " fill="#7D439D" transform="translate(301,275)"/>
<path d="M0 0 C2.42999536 2.27364177 3.42805835 3.68273845 4 7 C3.01 6.67 2.02 6.34 1 6 C1 7.98 1 9.96 1 12 C0.01 12 -0.98 12 -2 12 C-1.67 11.67 -1.34 11.34 -1 11 C-0.76636119 9.15108054 -0.58696365 7.29511969 -0.4375 5.4375 C-0.35371094 4.42558594 -0.26992188 3.41367188 -0.18359375 2.37109375 C-0.12300781 1.58863281 -0.06242187 0.80617187 0 0 Z " fill="#764593" transform="translate(260,237)"/>
<path d="M0 0 C2 2 2 2 2 5 C-0.31 6.32 -2.62 7.64 -5 9 C-4.67 7.35 -4.34 5.7 -4 4 C-3.01 3.67 -2.02 3.34 -1 3 C-0.67 2.01 -0.34 1.02 0 0 Z " fill="#1D072C" transform="translate(274,232)"/>
<path d="M0 0 C0 1.32 0 2.64 0 4 C-2.31 4 -4.62 4 -7 4 C-7.33 4.66 -7.66 5.32 -8 6 C-8.66 6 -9.32 6 -10 6 C-9.01958581 3.54896452 -8.3486182 2.23241214 -6.125 0.75 C-4 0 -4 0 0 0 Z " fill="#220632" transform="translate(213,233)"/>
<path d="M0 0 C0.125 2.875 0.125 2.875 0 6 C-0.66 6.66 -1.32 7.32 -2 8 C-2.66 7.67 -3.32 7.34 -4 7 C-4 5.02 -4 3.04 -4 1 C-1 0 -1 0 0 0 Z " fill="#995EC2" transform="translate(191,196)"/>
<path d="M0 0 C0.66 0.33 1.32 0.66 2 1 C1.625 2.9375 1.625 2.9375 1 5 C0.01 5.495 0.01 5.495 -1 6 C-1.33 6.99 -1.66 7.98 -2 9 C-2.99 9 -3.98 9 -5 9 C-3.90931332 5.22454612 -3.0916909 2.52956528 0 0 Z " fill="#170824" transform="translate(198,187)"/>
<path d="M0 0 C1.32 0.66 2.64 1.32 4 2 C1.03 3.65 -1.94 5.3 -5 7 C-5 5.35 -5 3.7 -5 2 C-4.01 2.495 -4.01 2.495 -3 3 C-2.34 2.34 -1.68 1.68 -1 1 C-0.67 0.67 -0.34 0.34 0 0 Z " fill="#110518" transform="translate(283,321)"/>
<path d="M0 0 C2.475 0.495 2.475 0.495 5 1 C4.67 3.97 4.34 6.94 4 10 C2.33094759 6.66189518 1.1258614 3.53842155 0 0 Z " fill="#8746A8" transform="translate(228,294)"/>
<path d="M0 0 C2.475 0.495 2.475 0.495 5 1 C5.26218749 4.14624993 5.24754367 5.61837017 3.5 8.3125 C2.7575 9.1478125 2.7575 9.1478125 2 10 C2.33 7.36 2.66 4.72 3 2 C2.01 2.33 1.02 2.66 0 3 C0 2.01 0 1.02 0 0 Z " fill="#1E0A2F" transform="translate(226,229)"/>
<path d="M0 0 C2 3 2 3 2 5 C3.65 5.33 5.3 5.66 7 6 C6.67 7.32 6.34 8.64 6 10 C3.54896452 9.01958581 2.23241214 8.3486182 0.75 6.125 C0 4 0 4 0 0 Z " fill="#764A95" transform="translate(188,203)"/>
<path d="M0 0 C0 0.66 0 1.32 0 2 C-5.17578125 5.22265625 -5.17578125 5.22265625 -7 6 C-7.99 5.67 -8.98 5.34 -10 5 C-3.87096774 0 -3.87096774 0 0 0 Z " fill="#190621" transform="translate(224,173)"/>
<path d="M0 0 C2.64752004 2.57784846 4.94432065 4.91648098 7 8 C2.25 6.125 2.25 6.125 0 5 C0 4.34 0 3.68 0 3 C-0.66 2.67 -1.32 2.34 -2 2 C-1.34 2 -0.68 2 0 2 C0 1.34 0 0.68 0 0 Z " fill="#240935" transform="translate(237,334)"/>
<path d="M0 0 C1.32 0 2.64 0 4 0 C4 1.98 4 3.96 4 6 C2.68 5.67 1.36 5.34 0 5 C0 3.35 0 1.7 0 0 Z " fill="#100515" transform="translate(237,326)"/>
<path d="M0 0 C3.44246864 2.2949791 4.95925695 4.42869967 7 8 C6.67 8.99 6.34 9.98 6 11 C3.69 8.03 1.38 5.06 -1 2 C-0.67 1.34 -0.34 0.68 0 0 Z " fill="#180724" transform="translate(225,313)"/>
<path d="M0 0 C2.93200474 2.85276137 5.64315404 5.65079784 8 9 C5.0280615 7.87548273 2.66559313 6.77706209 0 5 C-0.1875 2.375 -0.1875 2.375 0 0 Z " fill="#170620" transform="translate(219,313)"/>
<path d="M0 0 C1.65 0 3.3 0 5 0 C5 1.32 5 2.64 5 4 C3.02 4 1.04 4 -1 4 C-0.67 2.68 -0.34 1.36 0 0 Z " fill="#9150B3" transform="translate(318,302)"/>
<path d="M0 0 C0.99 0 1.98 0 3 0 C3 0.66 3 1.32 3 2 C3.66 2 4.32 2 5 2 C5 2.66 5 3.32 5 4 C3.35 4.66 1.7 5.32 0 6 C-0.38218767 4.34385343 -0.71395102 2.67542976 -1 1 C-0.67 0.67 -0.34 0.34 0 0 Z " fill="#884BAD" transform="translate(158,248)"/>
<path d="M0 0 C0.66 0 1.32 0 2 0 C2 0.99 2 1.98 2 3 C2.99 2.67 3.98 2.34 5 2 C5.66 3.65 6.32 5.3 7 7 C5.68 7.33 4.36 7.66 3 8 C2.01 5.36 1.02 2.72 0 0 Z " fill="#7D439C" transform="translate(298,240)"/>
<path d="M0 0 C0.99 0.33 1.98 0.66 3 1 C3 5.29 3 9.58 3 14 C2.01 14.33 1.02 14.66 0 15 C0.2475 14.2575 0.2475 14.2575 0.5 13.5 C1.41192659 8.94036703 1.48043888 4.44131663 0 0 Z " fill="#0F021A" transform="translate(220,211)"/>
<path d="M0 0 C-0.99 1.485 -0.99 1.485 -2 3 C-3.9453125 3.29296875 -3.9453125 3.29296875 -6.125 3.1875 C-7.40375 3.125625 -8.6825 3.06375 -10 3 C-6.46873184 -0.69178035 -5.02635024 -1.19045137 0 0 Z " fill="#7B419E" transform="translate(205,199)"/>
<path d="M0 0 C0.66 1.32 1.32 2.64 2 4 C0.625 5.5 0.625 5.5 -1 7 C-1.66 7 -2.32 7 -3 7 C-3.1875 4.625 -3.1875 4.625 -3 2 C-2.01 1.34 -1.02 0.68 0 0 Z " fill="#945AB5" transform="translate(191,190)"/>
<path d="M0 0 C0.33 0.99 0.66 1.98 1 3 C1.66 3.33 2.32 3.66 3 4 C1.25 5.5625 1.25 5.5625 -1 7 C-3.25 6.6875 -3.25 6.6875 -5 6 C-3.35 4.02 -1.7 2.04 0 0 Z " fill="#773E98" transform="translate(296,289)"/>
<path d="M0 0 C0.33 0 0.66 0 1 0 C1.03738281 0.75925781 1.07476562 1.51851563 1.11328125 2.30078125 C1.17902344 3.29464844 1.24476563 4.28851563 1.3125 5.3125 C1.37050781 6.29863281 1.42851562 7.28476562 1.48828125 8.30078125 C2.04622813 11.24384457 2.68540132 12.18182999 5 14 C4.01 14.495 4.01 14.495 3 15 C2.01 14.34 1.02 13.68 0 13 C-0.29296875 9.9609375 -0.29296875 9.9609375 -0.1875 6.375 C-0.16042969 5.18648438 -0.13335937 3.99796875 -0.10546875 2.7734375 C-0.07066406 1.85820312 -0.03585938 0.94296875 0 0 Z " fill="#15051E" transform="translate(160,276)"/>
<path d="M0 0 C0.66 0 1.32 0 2 0 C1.53199289 4.05606165 1.12046792 7.46588679 -1 11 C-0.67 8.69 -0.34 6.38 0 4 C-0.66 4 -1.32 4 -2 4 C-1.34 2.68 -0.68 1.36 0 0 Z " fill="#914FB3" transform="translate(280,261)"/>
<path d="M0 0 C-0.54723683 3.37462715 -1.0549 5.08235 -3 8 C-3.66 5.69 -4.32 3.38 -5 1 C-3 0 -3 0 0 0 Z " fill="#6F488F" transform="translate(293,161)"/>
<path d="M0 0 C2.97 0.495 2.97 0.495 6 1 C5.34 2.98 4.68 4.96 4 7 C2 6 2 6 0.875 2.9375 C0.58625 1.968125 0.2975 0.99875 0 0 Z " fill="#1D082A" transform="translate(247,331)"/>
<path d="M0 0 C0.99 1.32 1.98 2.64 3 4 C1.89131683 6.21736634 0.50559539 8.03617993 -1 10 C-1.66 7.69 -2.32 5.38 -3 3 C-2.01 3.33 -1.02 3.66 0 4 C0 2.68 0 1.36 0 0 Z " fill="#703D8B" transform="translate(244,325)"/>
<path d="M0 0 C0.33 0 0.66 0 1 0 C1.144375 1.093125 1.28875 2.18625 1.4375 3.3125 C1.88288104 6.93122987 1.88288104 6.93122987 3 10 C3.66 10 4.32 10 5 10 C4.67 10.99 4.34 11.98 4 13 C2.015625 11.82421875 2.015625 11.82421875 0 10 C-0.390625 7.51953125 -0.390625 7.51953125 -0.25 4.8125 C-0.21390625 3.91144531 -0.1778125 3.01039063 -0.140625 2.08203125 C-0.07101562 1.05142578 -0.07101562 1.05142578 0 0 Z " fill="#623F77" transform="translate(260,304)"/>
<path d="M0 0 C0.99 0.33 1.98 0.66 3 1 C3 2.32 3 3.64 3 5 C1.35 5.66 -0.3 6.32 -2 7 C-1.34 4.69 -0.68 2.38 0 0 Z " fill="#9C5DBB" transform="translate(275,273)"/>
<path d="M0 0 C0.99 0.33 1.98 0.66 3 1 C4.1875 4.5625 4.1875 4.5625 5 8 C4.01 8.33 3.02 8.66 2 9 C0 3.375 0 3.375 0 0 Z " fill="#9F5CBF" transform="translate(218,254)"/>
<path d="M0 0 C5 2 5 2 10 4 C9.67 5.32 9.34 6.64 9 8 C7.49712782 6.85793642 5.99776716 5.71125043 4.5 4.5625 C3.6646875 3.92441406 2.829375 3.28632813 1.96875 2.62890625 C1.3190625 2.09136719 0.669375 1.55382812 0 1 C0 0.67 0 0.34 0 0 Z " fill="#9758B5" transform="translate(232,246)"/>
<path d="M0 0 C-0.33 1.32 -0.66 2.64 -1 4 C-2.65 4.33 -4.3 4.66 -6 5 C-6.66 4.01 -7.32 3.02 -8 2 C-2.25 0 -2.25 0 0 0 Z " fill="#150524" transform="translate(198,240)"/>
<path d="M0 0 C0.99 0.33 1.98 0.66 3 1 C1.515 2.485 1.515 2.485 0 4 C0.66 4.66 1.32 5.32 2 6 C0.68 6.33 -0.64 6.66 -2 7 C-2.99 5.68 -3.98 4.36 -5 3 C-2.6875 1.4375 -2.6875 1.4375 0 0 Z " fill="#7C439B" transform="translate(206,229)"/>
<path d="M0 0 C0.66 0.33 1.32 0.66 2 1 C2 2.98 2 4.96 2 7 C1.01 7.495 1.01 7.495 0 8 C0 7.34 0 6.68 0 6 C-0.66 6 -1.32 6 -2 6 C-2.33 5.01 -2.66 4.02 -3 3 C-2.01 3 -1.02 3 0 3 C0 2.01 0 1.02 0 0 Z " fill="#9859B7" transform="translate(219,217)"/>
<path d="M0 0 C0.99 0.33 1.98 0.66 3 1 C2.67 2.32 2.34 3.64 2 5 C0.35 5 -1.3 5 -3 5 C-2.01 3.35 -1.02 1.7 0 0 Z " fill="#8D4BB3" transform="translate(312,307)"/>
<path d="M0 0 C2.4375 0.6875 2.4375 0.6875 5 2 C5.8125 4.625 5.8125 4.625 6 7 C3.95880212 5.38405168 1.95927063 3.7143618 0 2 C0 1.34 0 0.68 0 0 Z " fill="#8951A4" transform="translate(211,302)"/>
<path d="M0 0 C-0.33 1.32 -0.66 2.64 -1 4 C-0.01 4.33 0.98 4.66 2 5 C0.68 5 -0.64 5 -2 5 C-2 4.34 -2 3.68 -2 3 C-3.98 3 -5.96 3 -8 3 C-3.5 0 -3.5 0 0 0 Z " fill="#7B4895" transform="translate(177,242)"/>
<path d="M0 0 C-2.25 1.625 -2.25 1.625 -5 3 C-7.3125 2.1875 -7.3125 2.1875 -9 1 C-9 0.34 -9 -0.32 -9 -1 C-5.22102349 -2.0497157 -3.35080929 -2.10976881 0 0 Z " fill="#9951BF" transform="translate(204,203)"/>
<path d="M0 0 C3.465 1.485 3.465 1.485 7 3 C6.67 3.99 6.34 4.98 6 6 C4.68 6 3.36 6 2 6 C2 4.68 2 3.36 2 2 C1.34 2 0.68 2 0 2 C0 1.34 0 0.68 0 0 Z " fill="#8D4EB2" transform="translate(176,299)"/>
<path d="M0 0 C2.475 0.495 2.475 0.495 5 1 C5.33 2.65 5.66 4.3 6 6 C5.01 6 4.02 6 3 6 C0 2.66666667 0 2.66666667 0 0 Z " fill="#8E4CAF" transform="translate(197,285)"/>
<path d="M0 0 C0.66 0.33 1.32 0.66 2 1 C1.34 2.98 0.68 4.96 0 7 C-0.99 6.67 -1.98 6.34 -3 6 C-2.625 3.5625 -2.625 3.5625 -2 1 C-1.34 0.67 -0.68 0.34 0 0 Z " fill="#8D44AC" transform="translate(276,278)"/>
<path d="M0 0 C0.6875 1.75 0.6875 1.75 1 4 C-0.4375 6.25 -0.4375 6.25 -2 8 C-2.6875 5.6875 -2.6875 5.6875 -3 3 C-1.5625 1.1875 -1.5625 1.1875 0 0 Z " fill="#1A0724" transform="translate(202,277)"/>
<path d="M0 0 C1.65 0.33 3.3 0.66 5 1 C4.34 1.66 3.68 2.32 3 3 C3 3.99 3 4.98 3 6 C1.02 5.34 -0.96 4.68 -3 4 C-1.68 3.67 -0.36 3.34 1 3 C0.67 2.01 0.34 1.02 0 0 Z " fill="#7B479C" transform="translate(337,247)"/>
<path d="M0 0 C2.97 0 5.94 0 9 0 C9 0.99 9 1.98 9 3 C5.625 3.1875 5.625 3.1875 2 3 C1.34 2.01 0.68 1.02 0 0 Z " fill="#9851BB" transform="translate(318,242)"/>
<path d="M0 0 C0.66 0.99 1.32 1.98 2 3 C1.67 3.99 1.34 4.98 1 6 C-0.32 6 -1.64 6 -3 6 C-2.625 3.5625 -2.625 3.5625 -2 1 C-1.34 0.67 -0.68 0.34 0 0 Z " fill="#9E60BE" transform="translate(179,240)"/>
<path d="M0 0 C2.55192629 1.27596315 2.99500868 2.37156116 4 5 C3.67 5.99 3.34 6.98 3 8 C1.68 7.34 0.36 6.68 -1 6 C-0.67 4.02 -0.34 2.04 0 0 Z " fill="#8A49AD" transform="translate(278,181)"/>
<path d="M0 0 C1.32 0.99 2.64 1.98 4 3 C3.34 3 2.68 3 2 3 C2.66 4.65 3.32 6.3 4 8 C1.525 7.01 1.525 7.01 -1 6 C-0.67 4.02 -0.34 2.04 0 0 Z " fill="#80489C" transform="translate(188,306)"/>
<path d="M0 0 C0.33 0.99 0.66 1.98 1 3 C3.01508358 3.73323796 3.01508358 3.73323796 5 4 C3.35 4.66 1.7 5.32 0 6 C0 5.01 0 4.02 0 3 C-0.99 2.67 -1.98 2.34 -3 2 C-2.01 1.34 -1.02 0.68 0 0 Z " fill="#84519E" transform="translate(323,299)"/>
<path d="M0 0 C0.66 0.33 1.32 0.66 2 1 C2.73075648 3.3140622 3.40138258 5.64828869 4 8 C2.68 7.67 1.36 7.34 0 7 C-1.125 2.25 -1.125 2.25 0 0 Z " fill="#A364BA" transform="translate(233,298)"/>
<path d="M0 0 C0.33 0.66 0.66 1.32 1 2 C1.66 2 2.32 2 3 2 C3 3.32 3 4.64 3 6 C3.66 6 4.32 6 5 6 C4.67 6.66 4.34 7.32 4 8 C2.35 6.35 0.7 4.7 -1 3 C-0.67 2.01 -0.34 1.02 0 0 Z " fill="#9D63BD" transform="translate(175,299)"/>
<path d="M0 0 C0.99 0.66 1.98 1.32 3 2 C0.36 3.65 -2.28 5.3 -5 7 C-5 6.01 -5 5.02 -5 4 C-4.01 4 -3.02 4 -2 4 C-1.34 2.68 -0.68 1.36 0 0 Z " fill="#1A0628" transform="translate(318,299)"/>
<path d="M0 0 C0.33 0.66 0.66 1.32 1 2 C-0.65 3.98 -2.3 5.96 -4 8 C-4.66 7.67 -5.32 7.34 -6 7 C-4.02 4.69 -2.04 2.38 0 0 Z " fill="#190622" transform="translate(299,292)"/>
<path d="M0 0 C0 3.61029169 -0.96092582 6.55806676 -2 10 C-2.33 10 -2.66 10 -3 10 C-3.33 7.36 -3.66 4.72 -4 2 C-2.68 1.34 -1.36 0.68 0 0 Z " fill="#7C4199" transform="translate(273,290)"/>
<path d="M0 0 C0 0.66 0 1.32 0 2 C-0.66 2 -1.32 2 -2 2 C-1.34 3.98 -0.68 5.96 0 8 C-0.99 7.34 -1.98 6.68 -3 6 C-3 5.34 -3 4.68 -3 4 C-3.66 4 -4.32 4 -5 4 C-4.67 3.01 -4.34 2.02 -4 1 C-2 0 -2 0 0 0 Z " fill="#1B0421" transform="translate(303,268)"/>
<path d="M0 0 C0.99 1.32 1.98 2.64 3 4 C2.01 4.66 1.02 5.32 0 6 C-0.99 5.01 -1.98 4.02 -3 3 C-2.01 2.01 -1.02 1.02 0 0 Z " fill="#A261C2" transform="translate(235,267)"/>
<path d="M0 0 C2.39763185 2.39763185 2.34280586 3.33273498 2.625 6.625 C2.69976562 7.44226563 2.77453125 8.25953125 2.8515625 9.1015625 C2.90054688 9.72804688 2.94953125 10.35453125 3 11 C0.2441427 6.86621405 -0.10756445 4.94796454 0 0 Z " fill="#8347A4" transform="translate(220,266)"/>
<path d="M0 0 C2.97 0.33 5.94 0.66 9 1 C8.67 2.32 8.34 3.64 8 5 C4.35446828 3.7191375 2.83328987 2.83328987 0 0 Z " fill="#21062E" transform="translate(229,239)"/>
<path d="M0 0 C0.33 1.32 0.66 2.64 1 4 C2.65 3.67 4.3 3.34 6 3 C4.71937515 4.7074998 3.38232443 6.37373596 2 8 C1.34 8 0.68 8 0 8 C0 5.36 0 2.72 0 0 Z " fill="#250A2F" transform="translate(192,196)"/>
<path d="M0 0 C0.66 0 1.32 0 2 0 C1.67 2.31 1.34 4.62 1 7 C0.67 6.01 0.34 5.02 0 4 C-0.66 4 -1.32 4 -2 4 C-1.34 2.68 -0.68 1.36 0 0 Z " fill="#9552BB" transform="translate(253,334)"/>
<path d="M0 0 C2 1.3125 2 1.3125 4 3 C4 3.99 4 4.98 4 6 C2.68 5.67 1.36 5.34 0 5 C0 3.35 0 1.7 0 0 Z " fill="#0C0214" transform="translate(233,330)"/>
<path d="M0 0 C1.65 1.65 3.3 3.3 5 5 C4.01 5.66 3.02 6.32 2 7 C0.4375 5.1875 0.4375 5.1875 -1 3 C-0.67 2.01 -0.34 1.02 0 0 Z " fill="#77418B" transform="translate(217,306)"/>
<path d="M0 0 C-0.66 1.65 -1.32 3.3 -2 5 C-2.99 5 -3.98 5 -5 5 C-4.625 3.0625 -4.625 3.0625 -4 1 C-2 0 -2 0 0 0 Z " fill="#8D51AF" transform="translate(295,295)"/>
<path d="M0 0 C2.475 0.495 2.475 0.495 5 1 C5 1.66 5 2.32 5 3 C5.66 3.33 6.32 3.66 7 4 C5.35 4 3.7 4 2 4 C1.34 2.68 0.68 1.36 0 0 Z " fill="#9248B6" transform="translate(200,266)"/>
<path d="M0 0 C0.66 0 1.32 0 2 0 C2 0.99 2 1.98 2 3 C1.01 3.495 1.01 3.495 0 4 C0 4.99 0 5.98 0 7 C-0.99 6.67 -1.98 6.34 -3 6 C-1.125 1.125 -1.125 1.125 0 0 Z " fill="#9B5DB5" transform="translate(276,263)"/>
<path d="M0 0 C1.0625 1.875 1.0625 1.875 2 4 C1.67 4.66 1.34 5.32 1 6 C0.01 5.67 -0.98 5.34 -2 5 C-2 3.68 -2 2.36 -2 1 C-1.34 0.67 -0.68 0.34 0 0 Z " fill="#9D48C9" transform="translate(279,231)"/>
<path d="M0 0 C2.31 1.65 4.62 3.3 7 5 C5.02 5.99 5.02 5.99 3 7 C0 2.25 0 2.25 0 0 Z " fill="#68437D" transform="translate(268,218)"/>
<path d="M0 0 C1.125 1.75 1.125 1.75 2 4 C1.125 6.25 1.125 6.25 0 8 C-0.66 6.02 -1.32 4.04 -2 2 C-1.34 1.34 -0.68 0.68 0 0 Z " fill="#9350B3" transform="translate(293,203)"/>
<path d="M0 0 C1.32 0 2.64 0 4 0 C4.33 1.65 4.66 3.3 5 5 C3.35 4.67 1.7 4.34 0 4 C0 2.68 0 1.36 0 0 Z " fill="#9D55C1" transform="translate(210,204)"/>
<path d="M0 0 C1.32 0.66 2.64 1.32 4 2 C3.34 3.65 2.68 5.3 2 7 C0.68 5.35 -0.64 3.7 -2 2 C-1.34 2 -0.68 2 0 2 C0 1.34 0 0.68 0 0 Z " fill="#8442A8" transform="translate(194,202)"/>
<path d="M0 0 C-0.33 0.66 -0.66 1.32 -1 2 C-3.92713788 2.94934202 -5.42831368 3.23176473 -8.3125 2.0625 C-8.869375 1.711875 -9.42625 1.36125 -10 1 C-6.61981469 -0.04005702 -3.5219721 -0.08004482 0 0 Z " fill="#62417D" transform="translate(247,179)"/>
</svg>
